<svg width="24" height="24" viewBox="0 0 24 24" fill="none" xmlns="http://www.w3.org/2000/svg">
<path d="M12 2C13.6569 2 15 3.34315 15 5V6H9V5C9 3.34315 10.3431 2 12 2Z" fill="currentColor"/>
<path d="M7 8C7 7.44772 7.44772 7 8 7H16C16.5523 7 17 7.44772 17 8V9H7V8Z" fill="currentColor"/>
<path fill-rule="evenodd" clip-rule="evenodd" d="M5 11V19C5 20.6569 6.34315 22 8 22H16C17.6569 22 19 20.6569 19 19V11H5ZM10 14C10.5523 14 11 14.4477 11 15V17C11 17.5523 9.55228 19 7 19V17C8.65685 17 9 16.6569 9 16V15C9 14.4477 9.44772 14 10 14Z" fill="currentColor"/>
</svg>
