 <svg  version="1.0" xmlns="http://www.w3.org/2000/svg"  width="450.000000pt" height="450.000000pt" viewBox="0 0 450.000000 450.000000"  preserveAspectRatio="xMidYMid meet">  <g transform="translate(0.000000,450.000000) scale(0.050000,-0.050000)" fill="#26a269" stroke="none"> <path d="M3910 8918 c-2778 -370 -4526 -3173 -3639 -5834 1047 -3144 5041 -4062 7335 -1686 2483 2573 1094 6845 -2436 7494 -211 39 -1037 56 -1260 26z m1250 -188 c3812 -692 4836 -5677 1600 -7795 -2907 -1903 -6800 420 -6521 3892 168 2095 1651 3637 3791 3941 154 22 948 -5 1130 -38z"/> <path d="M3888 8588 c-2953 -401 -4480 -3871 -2803 -6368 1751 -2607 5661 -2334 7035 490 1437 2953 -987 6320 -4232 5878z m862 -189 c2945 -239 4568 -3546 2955 -6019 -1707 -2616 -5638 -2237 -6815 656 -987 2427 668 5148 3262 5362 290 24 318 24 598 1z"/> <path d="M4157 8238 c-2315 -178 -3907 -2523 -3245 -4778 733 -2497 3708 -3495 5778 -1940 2731 2051 1453 6456 -1950 6720 -277 21 -282 21 -583 -2z m173 -199 c16 -74 -4 -102 -38 -55 -68 93 -216 75 -228 -29 -19 -161 148 -267 228 -145 45 69 83 65 73 -8 -10 -67 -44 -81 -202 -82 -248 0 -309 290 -75 358 143 42 228 28 242 -39z m370 43 c0 -9 -18 -22 -40 -28 -53 -14 -62 -294 -10 -294 17 0 30 -10 30 -23 0 -15 -25 -18 -75 -10 -41 7 -97 13 -124 13 l-50 0 45 31 c55 39 68 289 15 289 -16 0 -34 9 -41 20 -8 13 36 20 119 20 72 0 131 -8 131 -18z m478 -80 c80 -75 83 -158 7 -242 -133 -148 -405 -73 -405 111 0 174 260 259 398 131z m-1276 -282 c67 0 41 -35 -37 -49 -41 -8 -97 -19 -125 -26 -45 -11 -47 -8 -22 23 44 52 -8 96 -88 75 -66 -17 -100 -103 -41 -103 56 0 33 -35 -32 -47 -106 -22 -125 -18 -89 18 17 16 35 61 41 100 56 357 45 348 214 163 82 -90 156 -154 179 -154z m1672 100 c82 -182 90 -188 132 -85 27 68 27 78 -3 112 -32 37 -30 37 37 23 108 -23 163 -57 106 -66 -55 -8 -68 -25 -135 -188 -67 -160 -69 -159 -175 51 l-82 163 -26 -60 c-32 -74 -35 -150 -7 -150 12 0 16 -8 10 -19 -7 -11 -49 -6 -101 12 -50 17 -85 39 -79 48 5 9 24 12 40 6 26 -10 109 137 156 278 22 67 55 34 127 -125z m-2294 64 c0 -9 -9 -25 -21 -37 -14 -14 5 -65 62 -166 101 -179 100 -180 -122 -112 -99 31 -186 50 -193 44 -20 -21 82 -153 119 -153 62 0 37 -33 -42 -57 -102 -30 -107 -29 -80 14 19 31 10 62 -54 180 -95 176 -96 176 131 103 103 -33 190 -60 195 -60 4 0 -13 36 -37 80 -27 47 -60 80 -82 80 -56 0 -43 29 29 65 75 37 95 41 95 19z m2914 -211 c-32 -84 -61 -338 -41 -369 58 -93 286 77 257 192 -13 51 -16 52 115 -36 82 -55 99 -90 33 -69 -62 19 -253 -179 -215 -224 17 -21 46 -28 91 -20 76 12 90 -23 24 -63 -37 -24 -53 -17 -153 58 -62 47 -170 119 -241 160 -106 62 -120 76 -81 81 69 10 70 69 3 104 -72 37 -134 10 -115 -50 12 -39 9 -38 -69 6 l-81 47 55 12 c30 6 108 45 173 86 169 109 267 143 245 85z m-1703 -43 c36 -28 37 -31 5 -51 -20 -12 -29 -33 -22 -52 19 -50 -67 11 -92 66 -30 66 40 90 109 37z m-1651 -85 c47 -74 59 -112 53 -172 -8 -76 -7 -77 52 -68 51 8 56 5 28 -15 -18 -13 -27 -30 -19 -37 7 -7 -1 -13 -18 -13 -16 0 -58 45 -92 100 -34 55 -71 100 -81 100 -22 0 -45 51 -54 119 -15 116 53 108 131 -14z m2029 34 c-5 -9 24 -12 66 -7 57 7 66 4 35 -10 -35 -17 -35 -19 -5 -21 19 0 35 -11 35 -22 0 -12 8 -16 18 -10 10 6 15 -5 12 -24 -4 -19 -8 -42 -8 -50 -3 -23 -102 -9 -102 14 0 12 -26 38 -57 59 -59 40 -68 120 -11 99 15 -6 23 -19 17 -28z m-2318 -77 c-10 -29 19 -73 111 -171 148 -159 153 -152 -79 -128 -104 10 -197 16 -209 12 -35 -12 113 -137 151 -127 56 14 41 -19 -38 -79 l-73 -56 12 50 c11 40 -8 71 -108 175 -145 154 -147 152 96 128 108 -11 200 -16 205 -13 20 18 -111 127 -153 127 -63 0 -57 22 19 74 81 54 80 54 66 8z m2162 -17 c68 -195 134 -322 173 -335 75 -24 -14 -36 -144 -20 -89 12 -103 18 -69 31 78 29 38 99 -56 99 -92 0 -127 -49 -66 -93 33 -24 25 -27 -67 -27 -117 0 -124 8 -56 62 26 21 73 81 103 133 96 168 159 219 182 150z m-383 -46 c18 -79 -2 -99 -42 -43 -59 85 -115 58 -99 -49 20 -129 45 -187 81 -187 16 0 30 -9 30 -20 0 -11 -38 -20 -85 -20 -47 0 -105 -6 -130 -13 -27 -7 -45 -3 -45 11 0 12 14 22 30 22 32 0 38 93 12 210 -16 78 -74 90 -105 21 -32 -71 -57 -64 -57 16 l0 66 165 20 c91 11 180 22 198 24 23 2 38 -18 47 -58z m1102 -100 c56 -47 19 -139 -56 -139 -63 0 -16 -130 68 -188 69 -49 22 -65 -60 -22 -62 34 -163 166 -164 215 0 8 22 15 49 15 62 0 105 69 70 111 -44 53 -81 30 -130 -82 -55 -124 -60 -162 -24 -175 78 -28 -14 -26 -110 2 -115 34 -150 64 -75 64 77 0 174 226 115 269 -19 14 -30 30 -24 36 14 14 305 -77 341 -106z m176 69 c18 -7 26 -22 19 -33 -8 -13 -4 -15 11 -6 42 25 299 -106 268 -137 -24 -23 -69 -13 -55 13 8 14 -16 -11 -53 -54 -38 -44 -68 -87 -68 -97 0 -9 -22 -30 -50 -45 -27 -15 -38 -28 -24 -28 17 -1 13 -15 -13 -43 -85 -90 -47 -209 79 -249 21 -6 38 -21 38 -32 0 -10 8 -14 18 -8 9 6 41 -8 69 -30 29 -23 68 -43 88 -44 19 -2 62 -35 95 -73 33 -39 49 -63 35 -55 -18 11 -23 2 -18 -31 6 -33 20 -45 50 -41 29 3 38 -4 30 -25 -7 -20 3 -28 36 -26 117 5 204 -34 208 -94 5 -68 37 -193 52 -202 9 -6 17 -19 17 -30 0 -11 -8 -16 -17 -10 -9 6 -29 -12 -43 -39 -15 -27 -39 -49 -53 -49 -15 0 -27 -8 -27 -18 0 -29 142 -11 161 20 22 34 157 -92 158 -147 1 -19 11 -35 24 -35 32 0 127 -105 121 -135 -3 -14 5 -25 17 -25 15 0 18 -13 8 -35 -21 -49 -25 -165 -6 -153 10 6 17 -11 17 -37 0 -26 11 -59 25 -74 20 -22 19 -24 -5 -10 -24 13 -25 11 -8 -12 23 -29 51 -119 59 -184 2 -19 5 -44 7 -55 1 -11 13 -18 26 -15 14 3 34 -15 45 -40 25 -55 131 -56 190 -2 20 19 42 30 48 23 6 -6 17 13 24 41 11 44 19 49 51 32 38 -20 85 -3 162 59 31 24 37 21 56 -30 12 -32 37 -70 56 -84 23 -17 27 -30 12 -40 -42 -27 -20 -259 30 -312 l45 -48 -47 -45 c-25 -25 -32 -38 -16 -29 22 12 24 10 8 -8 -90 -99 17 -427 159 -485 35 -14 73 -38 85 -54 12 -16 34 -24 50 -19 15 6 48 3 72 -6 28 -10 47 -8 53 8 5 13 11 1 11 -28 1 -28 -4 -58 -12 -66 -8 -7 -12 -49 -9 -93 4 -55 -2 -79 -20 -79 -20 -1 -19 -6 3 -20 22 -14 23 -19 4 -20 -15 0 -22 -8 -16 -17 6 -9 -2 -34 -18 -55 -24 -32 -29 -33 -29 -6 -1 25 -19 31 -81 28 -44 -3 -80 1 -80 9 0 12 -86 23 -215 29 -25 1 -45 7 -45 13 0 65 -188 -25 -228 -109 -18 -38 -41 -72 -52 -75 -11 -4 -6 -33 13 -67 58 -106 147 -290 147 -303 0 -6 -40 32 -89 86 -83 89 -93 95 -133 71 -35 -22 -39 -22 -26 0 10 16 -2 14 -33 -7 -27 -19 -47 -44 -44 -56 3 -13 -8 -43 -25 -67 -16 -23 -30 -55 -30 -70 0 -15 -14 -40 -30 -57 -17 -17 -24 -40 -17 -52 9 -14 4 -15 -15 -4 -70 44 -87 29 -78 -69 l4 -49 -47 52 c-26 28 -123 103 -217 166 -287 194 -480 335 -471 345 5 5 64 -29 131 -74 67 -46 130 -78 141 -71 11 6 18 3 14 -8 -5 -21 167 -149 330 -246 76 -45 147 -52 75 -7 -12 7 -16 20 -11 29 16 25 -65 87 -97 74 -19 -7 -35 4 -43 29 -7 24 -24 36 -40 30 -15 -5 -32 7 -39 29 -7 21 -19 37 -26 36 -41 -6 -65 6 -53 24 7 12 1 19 -14 16 -15 -4 -61 15 -103 40 -42 26 -81 43 -87 36 -24 -23 -64 36 -42 62 11 14 15 32 8 39 -7 7 -13 3 -13 -9 0 -12 -19 -16 -42 -10 -28 7 -38 22 -31 48 7 30 0 35 -36 29 -54 -10 -77 4 -109 63 -13 25 -36 45 -50 45 -15 0 -45 16 -66 35 -21 19 -26 27 -11 17 17 -12 35 -10 50 5 17 17 11 24 -26 25 -27 2 -58 5 -69 7 -11 3 -37 6 -57 8 -24 2 -33 13 -26 33 7 18 0 30 -17 30 -17 0 -24 12 -17 30 6 17 1 30 -12 30 -13 0 -18 9 -11 20 7 11 -3 20 -21 20 -29 0 -30 5 -6 34 16 20 17 28 3 19 -15 -8 -24 0 -25 22 -2 77 -8 103 -24 93 -15 -9 -20 5 -16 44 1 6 -15 24 -35 39 -23 18 -26 28 -10 28 21 1 21 6 0 29 -14 16 -30 28 -36 28 -38 -2 -46 7 -20 24 26 17 25 19 -5 20 -19 0 -53 18 -75 40 -22 22 -40 32 -40 21 0 -10 -24 -14 -54 -9 -68 13 -89 26 -76 48 6 9 0 24 -13 32 -14 9 -18 6 -9 -9 22 -36 -16 -27 -60 14 -21 20 -50 32 -63 28 -49 -16 -23 40 76 161 109 135 136 199 100 242 -16 20 -16 32 -2 42 12 7 17 20 12 29 -6 9 3 28 20 42 25 21 28 19 16 -11 -9 -24 -6 -32 8 -23 12 8 28 4 36 -9 9 -13 27 -1 50 34 20 30 31 64 25 75 -7 11 10 15 41 9 39 -8 60 1 83 36 20 31 41 42 64 34 23 -9 30 -5 22 16 -9 22 5 29 55 27 37 -1 63 5 57 14 -5 9 9 32 33 51 23 20 61 52 84 71 23 19 49 35 58 35 9 0 17 10 17 21 0 12 -9 16 -20 9 -11 -7 -20 -7 -20 -1 0 7 23 21 50 31 43 16 60 50 53 104 -1 7 14 12 34 11 42 -3 49 -48 10 -64 -32 -12 -36 -51 -6 -51 12 0 16 9 9 20 -7 11 5 20 27 20 22 0 44 -11 49 -25 6 -17 22 -12 50 18 23 23 38 47 33 52 -5 4 4 8 21 8 20 0 23 -7 10 -23 -14 -16 -8 -35 18 -58 21 -19 42 -57 47 -84 5 -27 5 -45 0 -39 -6 5 -28 -3 -49 -17 -52 -37 -114 -18 -128 40 -14 54 -44 63 -61 18 -22 -57 17 -140 102 -222 78 -75 191 -239 191 -277 0 -8 -18 6 -40 32 l-40 47 30 -74 c17 -41 30 -103 30 -137 0 -36 8 -56 20 -49 11 7 20 34 20 60 0 51 68 111 206 181 104 53 155 142 160 277 4 134 -8 148 -83 94 -33 -23 -64 -42 -70 -42 -18 0 8 206 32 255 12 25 17 50 10 56 -6 7 -17 -7 -25 -29 -7 -23 -21 -42 -30 -42 -38 0 -34 33 10 85 31 35 51 45 57 29 5 -13 11 19 11 71 2 107 -2 111 -72 55 -28 -22 -59 -35 -68 -29 -10 6 -13 -2 -6 -18 6 -16 1 -35 -11 -42 -12 -8 -21 3 -21 27 0 22 9 45 20 52 67 41 -5 99 -77 61 -40 -20 -63 -24 -63 -10 0 12 -11 18 -25 13 -14 -5 -23 -20 -20 -33 4 -13 -2 -19 -12 -13 -20 13 -359 -191 -393 -236 -11 -14 -51 -42 -90 -62 -38 -19 -106 -60 -150 -90 -44 -30 -127 -84 -184 -120 -58 -36 -100 -73 -95 -82 5 -8 -8 -21 -30 -28 -27 -8 -35 -23 -26 -46 12 -31 10 -31 -23 1 -43 43 -72 45 -72 5 0 -16 -7 -30 -17 -30 -19 0 -17 -61 3 -94 8 -13 6 -28 -4 -35 -10 -6 -23 0 -27 14 -7 18 -20 16 -49 -10 -21 -19 -46 -28 -54 -20 -8 8 -24 -1 -35 -21 -11 -19 -28 -30 -38 -23 -10 6 -38 0 -63 -13 -44 -24 -44 -25 -6 -40 30 -11 32 -16 8 -17 -17 0 -48 -19 -68 -41 -20 -22 -46 -40 -58 -40 -12 0 -46 -13 -76 -28 -49 -26 -154 4 -116 32 6 4 82 61 170 126 211 156 221 166 88 92 -61 -34 -127 -62 -147 -62 -22 0 -31 -10 -24 -28 9 -24 -20 -48 -67 -56 -5 -1 -21 -16 -34 -34 -18 -25 -29 -27 -47 -8 -19 18 14 49 148 136 94 61 178 123 186 136 9 14 1 13 -20 -4 -19 -15 -39 -22 -46 -16 -6 6 55 54 135 105 85 55 149 85 154 72 10 -32 36 -29 74 10 21 21 25 38 12 46 -12 7 -3 23 21 38 23 14 35 16 28 4 -7 -11 -3 -21 10 -21 12 0 27 16 32 35 11 42 159 132 188 114 11 -6 18 0 14 15 -3 14 10 25 29 23 19 -1 33 6 30 15 -2 10 27 38 65 63 38 24 62 32 53 18 -12 -18 3 -17 46 6 35 18 59 40 53 50 -6 9 12 31 39 49 28 18 50 25 50 16 0 -10 -20 -28 -45 -40 -25 -12 -35 -22 -23 -23 49 -3 158 108 152 154 -4 25 -14 45 -23 45 -8 0 -11 23 -6 50 7 38 1 50 -25 50 -30 0 -31 -5 -7 -34 25 -32 24 -32 -22 0 -28 19 -64 33 -80 32 -21 -1 -23 -4 -6 -11 14 -6 20 -19 14 -29 -6 -10 -2 -18 10 -18 11 0 21 -18 21 -40 0 -22 -7 -39 -15 -38 -39 7 -66 -4 -56 -21 15 -23 -62 -68 -88 -51 -11 6 -29 -8 -42 -31 -13 -25 -34 -38 -52 -31 -16 6 -24 3 -18 -7 6 -10 -7 -24 -29 -31 -22 -7 -40 -22 -40 -33 0 -10 -9 -14 -20 -7 -11 7 -20 3 -20 -9 0 -11 -7 -20 -15 -19 -42 7 -65 -5 -65 -34 0 -23 -12 -29 -42 -22 -23 6 -37 6 -30 -1 16 -16 -118 -105 -158 -105 -18 0 -27 -8 -21 -18 14 -22 -76 -82 -123 -82 -80 1 -94 33 -36 83 31 26 82 83 114 127 32 44 64 78 71 74 7 -3 14 6 17 20 2 15 13 67 24 116 32 151 -3 383 -54 351 -10 -6 -24 13 -31 41 -7 29 -18 48 -23 42 -15 -14 -108 76 -108 104 0 13 -13 28 -29 34 -37 15 -31 88 8 90 19 1 22 5 7 11 -13 5 -18 24 -11 42 8 21 4 27 -12 17 -18 -11 -21 0 -11 41 8 31 22 60 31 64 10 3 12 14 6 24 -6 10 4 45 21 79 17 34 26 70 19 81 -7 12 -2 34 12 50 19 23 18 36 -3 61 -22 27 -21 31 13 25 21 -3 39 3 39 13 0 11 -11 19 -25 17 -14 -1 -25 5 -25 14 0 10 -31 32 -70 50 -38 19 -70 45 -70 58 0 14 -19 33 -42 44 -41 18 -41 19 7 44 43 23 62 21 143 -16 52 -24 111 -38 132 -31 21 7 75 -8 124 -33 47 -25 95 -45 106 -44 47 1 130 33 130 49 0 10 12 18 27 18 17 0 25 24 24 73 -2 41 11 86 28 104 28 28 28 29 -4 18 -38 -15 -39 22 -4 95 29 58 23 101 -19 148 -38 42 -24 53 36 30z m-1857 -104 c-5 -5 -36 2 -69 15 -44 19 -69 19 -101 1 -73 -38 -35 -69 97 -80 235 -19 244 -187 14 -236 -68 -15 -89 -11 -121 19 -51 48 -32 62 46 35 52 -18 73 -16 115 12 71 46 36 77 -91 80 -223 5 -248 155 -37 220 81 25 189 -23 147 -66z m2954 33 c102 -54 159 -151 100 -169 -19 -6 -61 -25 -92 -42 -60 -32 -92 -15 -93 50 0 15 -9 21 -21 13 -12 -7 -3 21 19 62 22 42 36 83 30 92 -14 23 7 21 57 -6z m-3436 -148 c45 -46 39 -52 -34 -39 -98 17 -131 -13 -87 -80 39 -60 72 -57 105 8 l22 45 33 -46 c42 -60 41 -82 -5 -68 -73 23 -106 -6 -70 -61 50 -76 185 -38 154 43 -7 17 1 29 19 29 27 0 54 -39 54 -80 0 -18 -270 -160 -304 -160 -13 0 -12 11 4 29 40 49 -104 251 -178 251 -70 0 -46 27 84 93 146 74 161 77 203 36z m3755 -154 c137 -146 152 -223 64 -306 -116 -106 -232 -85 -380 71 -118 124 -128 146 -60 129 78 -20 260 118 243 184 -18 73 8 57 133 -78z m-4855 65 c126 0 176 -229 73 -329 -201 -191 -508 61 -319 262 47 50 148 89 194 75 14 -4 38 -8 52 -8z m3915 -33 c84 -58 86 -62 48 -112 -36 -47 -52 -44 -52 11 0 25 -11 57 -24 70 -83 83 -139 11 -66 -84 117 -154 -41 -262 -220 -152 -75 47 -81 61 -49 122 23 43 64 34 47 -11 -13 -33 67 -111 114 -111 57 0 55 45 -5 127 -112 156 38 257 207 140z m-1664 -27 c0 -11 7 -19 15 -18 37 6 65 -4 65 -23 0 -12 -9 -16 -20 -9 -11 7 -20 -7 -20 -31 0 -34 -9 -41 -40 -33 -22 6 -40 1 -40 -11 0 -11 -30 -49 -67 -83 -62 -59 -82 -129 -48 -164 21 -20 -8 -69 -32 -54 -13 7 -9 -4 9 -26 51 -61 58 -81 28 -81 -16 0 -24 6 -19 15 5 8 -44 2 -110 -13 -78 -19 -137 -22 -175 -10 -31 10 -83 24 -115 31 -94 21 -21 49 129 51 87 0 153 13 200 38 l70 37 -60 13 c-119 26 -129 27 -124 5 2 -12 -12 -25 -31 -29 -27 -6 -32 1 -21 29 11 27 -2 23 -52 -19 -36 -30 -80 -55 -99 -55 -25 1 -27 5 -7 17 14 9 23 26 20 38 -10 36 129 130 148 100 8 -14 16 -19 16 -12 0 8 5 28 12 45 26 68 -168 16 -250 -66 -25 -25 -42 -32 -42 -17 0 15 -6 17 -15 5 -31 -41 -105 -73 -105 -44 0 58 51 100 94 77 50 -27 74 -7 41 34 -21 25 -20 28 5 15 17 -8 10 3 -15 25 -58 51 -57 63 5 63 31 0 50 11 50 30 0 17 14 30 30 30 17 0 30 9 30 20 0 11 11 18 25 15 14 -3 23 9 20 25 -3 23 15 31 74 31 43 0 75 -3 71 -7 -4 -4 10 -24 29 -43 42 -42 181 -14 181 35 0 15 9 21 20 14 11 -7 20 -3 20 9 0 11 23 21 50 21 28 0 50 -9 50 -20z m250 -20 c-18 -29 -115 -43 -138 -20 -16 16 -13 19 13 9 22 -8 39 -2 46 17 7 18 27 26 50 20 21 -6 34 -18 29 -26z m-1848 -48 c-19 -22 3 -51 105 -145 172 -157 171 -158 -87 -150 -121 4 -220 3 -220 -2 0 -25 158 -115 201 -116 47 0 47 -2 -21 -59 -82 -69 -107 -75 -91 -22 12 36 -134 199 -221 248 -80 45 -21 59 192 46 121 -8 220 -7 219 2 -1 35 -147 126 -183 115 -51 -17 -45 5 19 61 61 54 127 71 87 22z m798 -122 c0 -14 -13 -31 -30 -37 -16 -7 -31 -37 -31 -67 -2 -49 -4 -51 -19 -16 -16 38 -17 38 -19 -5 0 -25 8 -45 19 -45 11 0 20 -9 20 -20 0 -11 -15 -20 -32 -20 -27 0 -28 -6 -9 -29 20 -24 15 -39 -27 -78 -29 -26 -52 -60 -52 -76 0 -16 -17 -62 -38 -102 l-37 -74 55 39 c30 21 85 68 122 104 38 35 75 65 84 65 8 1 22 12 30 25 8 13 40 28 70 34 l56 10 -63 -59 c-34 -32 -69 -56 -78 -53 -9 2 -46 -27 -83 -66 -38 -38 -93 -83 -124 -99 -71 -37 -219 -196 -205 -220 7 -10 -4 -23 -24 -30 -36 -12 -225 -286 -225 -327 0 -87 199 128 202 218 2 43 6 53 13 28 14 -57 44 -70 102 -43 38 17 52 17 58 -2 5 -14 20 -25 33 -25 14 0 25 -13 25 -30 0 -16 -6 -30 -14 -30 -8 0 -20 -13 -26 -29 -7 -19 -1 -25 18 -18 16 6 30 19 32 29 1 10 3 29 5 43 2 14 18 24 37 22 19 -1 35 6 35 16 0 10 21 39 47 63 26 24 43 54 39 67 -4 12 7 37 25 55 17 17 29 33 25 34 -3 1 -26 4 -51 6 -73 8 -115 96 -56 119 19 7 25 1 18 -18 -26 -68 32 -21 75 61 50 94 75 114 71 55 -2 -25 12 -35 47 -35 28 0 61 -7 75 -16 15 -10 25 -7 25 6 0 12 8 17 18 11 11 -6 32 2 49 19 17 16 39 30 50 30 10 0 15 18 9 40 -6 22 -1 40 12 40 12 0 22 -11 22 -25 1 -19 4 -19 16 -1 9 14 46 21 90 17 41 -4 80 2 87 14 8 12 4 15 -10 7 -14 -9 -19 -4 -12 13 14 37 112 43 105 6 -3 -16 3 -29 14 -30 11 0 21 11 22 24 5 58 12 62 29 18 14 -34 11 -54 -11 -76 -33 -32 -40 -56 -13 -39 9 6 18 -17 19 -50 1 -46 -6 -59 -28 -50 -19 7 -25 3 -16 -11 10 -16 0 -20 -29 -12 -24 6 -43 2 -43 -9 0 -11 -13 -15 -29 -9 -19 7 -25 1 -18 -18 8 -21 -4 -29 -41 -29 -34 0 -52 -11 -52 -31 0 -19 -9 -26 -23 -17 -14 8 -18 5 -10 -7 7 -11 0 -46 -16 -77 -23 -44 -24 -60 -5 -72 13 -8 17 -16 8 -16 -9 0 7 -21 35 -47 28 -26 45 -52 39 -58 -6 -6 8 -17 31 -25 23 -7 37 -20 32 -28 -5 -8 2 -16 15 -17 97 -5 154 -16 154 -29 0 -32 4 -47 24 -83 11 -21 12 -33 3 -27 -10 6 -16 -22 -14 -61 4 -80 -28 -165 -61 -165 -13 0 -45 -27 -72 -60 -27 -33 -61 -60 -76 -60 -14 0 -21 -9 -14 -20 7 -11 -11 -30 -39 -43 -28 -13 -51 -32 -51 -42 0 -10 -24 1 -53 24 -29 22 -65 41 -80 41 -15 0 -27 12 -27 27 0 14 -12 26 -26 26 -43 0 -134 70 -121 92 8 12 4 15 -9 7 -12 -7 -41 5 -63 27 -23 23 -41 34 -42 26 0 -8 -13 2 -30 24 -16 21 -29 31 -29 22 0 -10 -16 1 -35 23 -19 22 -46 36 -60 31 -16 -5 -21 3 -12 26 11 27 5 31 -31 20 -33 -11 -57 0 -99 46 -59 63 -162 48 -190 -28 -12 -31 156 -138 187 -119 11 7 20 2 20 -10 0 -12 8 -17 18 -11 9 6 29 -3 42 -19 14 -17 33 -30 44 -30 10 0 48 -22 84 -50 36 -27 75 -50 86 -50 31 0 88 -71 71 -90 -8 -9 1 -11 20 -4 19 7 34 6 32 -2 -5 -39 6 -51 23 -24 19 29 32 -12 21 -68 -1 -9 25 -12 59 -5 50 10 83 -2 171 -60 109 -73 138 -102 76 -79 -60 24 10 -42 105 -98 48 -28 88 -55 88 -59 0 -17 -125 29 -196 71 -97 58 -56 14 68 -73 241 -170 513 -352 592 -397 47 -28 84 -58 82 -69 -3 -10 11 -17 30 -16 19 2 32 -8 29 -21 -4 -22 163 -139 489 -344 131 -82 219 -181 276 -311 41 -93 53 -104 141 -127 54 -15 136 -60 190 -105 52 -43 104 -79 115 -79 11 0 25 -15 32 -33 7 -18 18 -27 25 -21 6 7 23 1 37 -12 14 -13 45 -37 70 -54 25 -16 69 -48 98 -70 105 -81 336 -230 357 -230 80 0 -100 -302 -251 -421 l-54 -43 -80 92 c-109 126 -135 117 -28 -10 98 -118 128 -134 184 -99 35 22 38 21 25 -12 -19 -45 -19 -58 0 -147 18 -82 -37 -57 -58 26 -8 32 -28 45 -73 48 -35 3 -56 -4 -50 -15 7 -10 -10 -19 -36 -19 -27 0 -61 -16 -77 -35 -25 -32 -24 -33 13 -8 22 16 15 4 -16 -25 -31 -29 -67 -47 -79 -39 -12 7 -15 4 -8 -8 8 -12 -5 -28 -27 -35 -22 -7 -40 -22 -40 -33 0 -10 10 -13 23 -5 15 9 18 5 9 -9 -8 -13 -22 -19 -32 -13 -25 16 -80 -11 -80 -40 0 -14 -13 -31 -30 -37 -16 -7 -30 -2 -30 11 0 12 -16 8 -37 -11 -20 -18 -43 -33 -52 -33 -9 0 -27 -14 -39 -31 -13 -17 -52 -32 -87 -33 -35 -1 -59 -10 -53 -19 5 -9 -3 -11 -19 -5 -18 7 -34 -4 -42 -29 -16 -50 -72 -72 -96 -39 -13 18 -15 15 -7 -11 7 -20 0 -54 -16 -76 -26 -38 -28 -37 -41 17 -13 51 -16 53 -40 21 -38 -53 -57 -42 -21 12 44 67 20 112 -57 108 -238 -12 -313 42 -313 225 0 28 -16 78 -35 113 -19 35 -55 100 -80 144 -42 77 -43 143 -2 143 11 0 14 -9 7 -20 -7 -11 -2 -20 10 -20 12 0 16 -10 8 -23 -8 -13 -3 -18 14 -12 90 31 268 -144 375 -367 79 -168 116 -203 135 -128 7 29 4 62 -7 73 -12 12 -14 48 -5 88 10 43 8 70 -6 74 -12 4 -6 14 13 21 21 8 30 6 23 -6 -7 -11 -2 -20 11 -20 12 0 27 16 32 37 6 20 34 46 63 58 l54 21 -50 -3 c-27 -2 -61 -16 -74 -33 -14 -16 -25 -21 -25 -9 -1 36 42 66 76 54 24 -8 27 -4 13 11 -27 30 -110 7 -110 -30 0 -15 -10 -22 -21 -15 -12 7 -17 26 -11 42 7 16 4 25 -5 19 -17 -10 -219 37 -238 56 -6 6 73 7 175 2 143 -7 191 -17 209 -43 25 -33 71 -23 71 15 0 11 -8 15 -18 9 -10 -6 -23 3 -29 19 -8 19 0 30 23 31 19 0 48 31 66 69 18 38 24 64 13 57 -10 -7 -4 12 15 41 23 35 28 60 15 77 -53 70 -45 93 22 65 36 -15 101 -31 145 -35 44 -5 115 -32 157 -61 43 -29 85 -48 94 -42 28 17 -22 88 -61 88 -21 0 -48 14 -62 30 -33 40 83 -7 141 -56 96 -82 11 136 -93 241 -54 54 -77 113 -38 98 78 -30 136 -38 123 -18 -7 12 -49 28 -93 35 -78 13 -108 55 -55 77 22 8 -50 21 -89 16 -8 -1 -33 24 -56 57 -25 36 -72 67 -117 79 -70 19 -75 26 -80 100 -8 146 -153 381 -234 381 -15 0 -55 26 -90 58 -35 32 -97 74 -139 95 -42 20 -72 43 -67 52 5 8 -4 15 -20 15 -17 0 -57 23 -89 50 -33 28 -65 50 -72 50 -29 0 -212 147 -257 206 -27 35 -121 118 -207 183 -87 65 -171 134 -188 153 -16 18 -46 31 -65 27 -22 -3 -64 28 -110 83 -47 57 -90 88 -119 88 -25 0 -45 7 -44 15 6 38 -4 53 -19 29 -14 -22 -23 -21 -49 5 -38 37 -67 40 -81 6 -5 -14 -6 4 -3 39 4 36 14 76 22 89 9 15 6 18 -10 8 -16 -10 -29 0 -36 27 -8 33 -17 38 -37 21 -29 -24 -109 14 -109 52 0 11 -74 65 -165 120 -91 54 -169 104 -175 112 -5 7 -48 32 -94 56 -46 24 -90 61 -97 83 -12 40 -78 52 -100 17 -7 -11 -2 -34 12 -50 13 -16 16 -29 6 -30 -9 0 6 -13 33 -29 37 -21 41 -29 16 -29 -19 -1 -48 -26 -65 -56 -16 -30 -30 -42 -30 -26 -1 22 -6 24 -25 5 -18 -18 -15 -32 10 -60 43 -47 43 -64 2 -64 -19 0 -28 11 -22 28 16 41 -8 55 -43 27 -25 -20 -24 -15 3 24 19 28 34 65 34 83 0 18 14 44 30 58 38 32 38 53 -1 68 -18 6 -26 3 -19 -8 7 -11 -1 -14 -18 -8 -16 6 -25 24 -19 40 8 19 2 25 -17 17 -18 -6 -39 8 -53 35 -24 46 -24 46 -11 -4 35 -136 30 -191 -28 -307 -69 -139 -54 -251 24 -174 35 35 36 40 5 71 -48 48 -41 72 15 51 26 -10 52 -14 57 -9 5 5 21 -5 34 -21 21 -25 17 -34 -27 -50 -59 -22 -61 -30 -31 -116 25 -70 -11 -162 -93 -239 -69 -64 -71 -57 -86 348 -1 44 -22 83 -67 125 -88 82 -102 77 -86 -31 13 -86 12 -91 -28 -78 -50 16 -69 -147 -22 -197 9 -9 12 18 7 60 -8 71 -5 77 43 80 91 5 191 -268 115 -312 -27 -16 -29 -24 -7 -38 22 -14 21 -19 -3 -29 -20 -7 -28 3 -26 34 2 53 -89 168 -124 157 -13 -5 -24 -17 -24 -28 0 -11 10 -13 23 -5 14 9 18 5 9 -9 -24 -39 -57 -26 -46 18 8 31 -2 46 -40 61 -172 65 42 -273 232 -369 127 -64 122 -64 122 -7 0 109 84 199 114 122 10 -28 17 -26 48 15 24 31 42 40 56 27 30 -31 -30 -98 -93 -103 -30 -2 -62 -4 -70 -5 -8 -1 -15 -10 -15 -20 0 -10 18 -14 40 -8 27 7 40 1 40 -20 0 -18 -25 -36 -61 -44 -44 -10 -58 -23 -50 -44 6 -16 11 -38 11 -48 0 -35 31 -18 65 37 35 55 35 54 25 -85 -12 -160 1 -153 26 15 10 63 11 115 2 115 -9 0 -12 14 -5 30 20 52 41 34 98 -85 113 -237 147 -407 97 -487 -9 -16 -19 -37 -21 -48 -2 -11 -9 -36 -17 -55 -9 -21 -5 -35 9 -35 13 0 19 7 13 16 -11 19 57 84 88 84 11 0 20 -9 20 -20 0 -11 10 -18 23 -15 12 3 26 -6 31 -19 5 -15 -14 -23 -53 -22 -34 1 -68 -5 -76 -13 -17 -17 93 -111 129 -111 42 0 9 -48 -66 -96 -71 -46 -71 -46 -82 -5 -6 22 -19 41 -28 41 -10 0 -18 12 -18 27 0 16 -40 65 -90 111 -49 45 -90 101 -90 122 0 65 -75 128 -116 97 -29 -21 -30 -21 -9 3 25 28 -17 100 -57 100 -9 0 -96 39 -193 86 -97 48 -189 83 -206 79 -16 -5 -41 -12 -56 -17 -35 -11 98 -167 183 -212 58 -32 60 -36 23 -47 -43 -12 -64 -98 -28 -119 11 -7 15 -21 9 -30 -6 -10 15 -45 47 -77 32 -33 62 -68 66 -78 4 -11 51 -25 104 -32 80 -11 94 -8 76 14 -13 15 -17 33 -9 40 7 7 -7 13 -31 13 -49 0 -55 33 -15 85 34 45 52 44 52 -1 0 -20 23 -67 50 -104 28 -37 50 -79 50 -93 0 -13 11 -31 23 -39 16 -10 20 -4 12 16 -8 21 1 29 32 27 64 -4 153 -33 153 -50 0 -8 -25 -27 -55 -43 -30 -15 -62 -37 -70 -48 -9 -12 -15 -11 -15 5 0 14 -8 25 -18 25 -10 0 -14 -18 -8 -40 14 -52 -48 -34 -98 28 l-34 42 11 -46 c11 -43 9 -44 -41 -21 -28 13 -48 28 -42 33 5 6 -8 23 -30 39 -48 33 -35 65 25 65 33 0 38 5 19 24 -18 18 -32 15 -60 -11 -21 -18 -44 -26 -53 -18 -9 8 7 -23 36 -70 29 -46 53 -93 53 -105 0 -11 7 -20 15 -21 32 -1 86 -96 62 -111 -15 -9 -18 -5 -8 11 13 20 7 20 -28 1 -25 -13 -49 -19 -55 -13 -6 6 -30 -9 -53 -33 -24 -24 -56 -47 -73 -51 -16 -3 -46 -20 -65 -38 -19 -17 -41 -26 -48 -19 -7 7 -54 -27 -104 -76 -69 -65 -98 -82 -117 -66 -33 27 -34 63 -1 44 14 -8 19 -8 12 0 -8 9 -19 14 -26 13 -14 -3 -80 60 -83 78 -6 38 -35 79 -50 70 -10 -6 -18 3 -18 20 0 17 -14 31 -31 31 -16 0 -35 13 -42 30 -6 16 -21 24 -32 17 -14 -9 -17 3 -10 30 6 24 3 38 -7 32 -10 -6 -19 9 -21 35 -1 25 -4 70 -5 99 -2 29 -13 65 -25 80 -12 15 -29 59 -37 97 -28 132 -173 293 -241 267 -16 -6 -29 -1 -29 12 0 32 -40 7 -147 -94 -50 -47 -109 -85 -132 -85 -22 0 -41 -11 -41 -23 0 -13 -5 -18 -12 -12 -7 7 -30 -4 -52 -25 -66 -61 -170 55 -109 121 18 19 15 22 -13 12 -26 -9 -32 -5 -21 12 9 14 13 48 10 77 -10 95 264 168 293 79 4 -11 42 15 85 58 l78 77 -10 167 c-14 233 -17 254 -34 244 -8 -5 -15 -1 -15 10 0 11 11 23 24 28 14 4 24 52 25 119 0 62 8 108 16 103 8 -5 12 21 9 57 -8 90 45 122 145 87 79 -28 106 -23 185 32 57 40 137 38 189 -5 23 -20 28 -19 23 4 -3 15 8 28 24 28 38 0 100 51 100 83 0 14 16 34 35 45 37 20 53 142 18 142 -11 0 -14 6 -7 13 7 7 -9 34 -36 59 -51 47 -50 114 2 95 15 -6 22 -21 15 -32 -8 -12 -4 -15 10 -7 13 8 23 3 23 -10 0 -14 6 -19 13 -12 7 7 3 25 -9 39 -17 21 -6 40 46 84 38 31 64 64 58 74 -5 9 2 12 16 7 14 -6 36 12 49 40 13 28 15 45 5 39 -21 -13 -23 14 -5 61 10 27 16 28 29 7 12 -19 17 -9 18 29 0 35 8 51 21 43 12 -7 17 -26 11 -42 -7 -16 -3 -24 8 -17 11 7 20 5 20 -4 0 -9 19 -28 42 -43 23 -14 37 -17 30 -6 -7 11 -1 24 13 30 15 6 11 10 -10 11 -40 2 -46 33 -12 54 15 9 18 5 7 -12 -11 -18 -8 -21 8 -11 47 29 84 -27 43 -68 -61 -61 -72 -245 -22 -350 52 -106 115 -170 82 -83 -44 114 -26 223 46 301 83 87 84 87 126 6 18 -36 37 -54 42 -40 5 14 17 25 28 25 11 0 14 -8 9 -17 -6 -10 11 -18 39 -18 28 0 48 3 45 6 -65 62 -443 285 -468 275 -27 -10 -29 -6 -11 28 12 23 15 48 7 57 -25 28 43 -17 186 -122 203 -149 309 -212 343 -205 17 3 -89 83 -235 177 -252 162 -329 230 -245 215 20 -3 43 -15 51 -26 21 -28 52 69 49 153 l-3 72 93 -78 c93 -78 140 -77 97 3 -12 22 -26 40 -31 40 -6 0 -1 -17 10 -39 32 -58 25 -71 -16 -33 -21 18 -36 53 -34 78 2 24 -11 62 -28 84 -17 22 -22 33 -12 25 10 -9 28 13 41 50 12 36 33 63 46 60 14 -3 24 17 24 45 0 28 9 50 19 50 11 0 15 -16 10 -35 -7 -25 -4 -23 11 5 20 37 143 130 173 130 7 0 -11 -22 -40 -49 -47 -44 -70 -91 -43 -91 44 0 141 153 105 166 -14 4 9 23 51 41 42 18 71 41 64 52 -7 13 10 16 47 9 32 -7 78 -1 103 12 36 19 49 19 63 -3 14 -20 17 -17 13 13 -3 22 4 38 17 36 13 -3 19 11 13 32 -10 38 42 72 76 51 10 -6 18 -2 18 10 0 11 -10 21 -22 21 -16 0 -16 8 1 29 27 32 81 20 81 -19z m1149 -39 c150 -45 200 -113 159 -220 -10 -25 -19 -27 -41 -8 -22 18 -34 18 -52 0 -17 -17 -14 -23 13 -23 101 0 5 -50 -100 -52 -231 -4 -260 -8 -229 -27 20 -13 30 -70 35 -203 10 -277 54 -282 62 -7 5 193 8 209 45 209 31 0 40 -15 42 -75 3 -72 4 -73 11 -11 9 69 72 108 112 68 16 -16 9 -22 -26 -22 l-49 0 45 -31 c58 -41 57 -76 -1 -58 l-45 14 45 -40 c25 -22 45 -45 45 -52 0 -7 -20 -14 -45 -15 -25 0 -34 -6 -20 -11 15 -6 25 -47 25 -99 0 -57 -9 -88 -25 -88 -46 -1 33 -39 81 -40 73 0 159 -54 213 -135 63 -91 66 -124 7 -73 l-43 38 43 -72 c75 -124 17 -265 -164 -394 -143 -103 -147 -18 -7 135 105 113 111 137 61 223 -37 63 -80 81 -55 23 35 -80 30 -175 -12 -225 l-41 -50 33 68 c21 44 28 89 20 130 -7 34 -14 84 -14 112 -1 57 -27 79 -92 80 -48 0 -63 50 -20 67 14 6 10 11 -11 11 -20 1 -56 -8 -80 -21 -122 -66 -621 3 -549 75 21 21 238 67 316 68 l70 0 -8 85 c-4 47 -18 92 -30 100 -16 11 -14 21 7 35 26 17 26 23 1 38 -25 17 -25 24 0 54 22 27 23 36 4 43 -14 5 -25 20 -25 33 0 14 -23 47 -51 73 -103 97 -35 239 133 279 98 23 102 23 207 -9z m1684 -4 c175 -83 157 -295 -28 -346 -225 -62 -423 160 -270 303 91 84 183 98 298 43z m-4590 -174 c97 -60 126 -70 149 -51 58 48 50 -2 -13 -81 -58 -71 -123 -116 -88 -60 32 53 -231 220 -282 178 -54 -45 -32 19 36 105 62 76 65 78 71 33 4 -34 41 -70 127 -124z m5516 -16 c82 -116 85 -125 50 -150 -56 -41 -69 -33 -56 33 14 71 -20 92 -102 60 -58 -22 -42 -80 21 -80 47 0 31 -40 -23 -60 -69 -26 -75 -25 -62 10 25 65 -6 92 -69 59 -65 -34 -66 -36 -37 -90 12 -22 41 -39 70 -39 65 0 63 -36 -4 -52 -37 -10 -57 -4 -70 18 -10 18 -49 73 -88 123 -82 108 -83 115 -21 100 82 -21 300 107 279 163 -26 68 32 18 112 -95z m-3639 5 c0 -37 -70 -71 -103 -50 -28 17 -19 48 13 48 17 0 30 9 30 20 0 11 14 20 30 20 17 0 30 -17 30 -38z m-1379 -63 c49 -26 51 -66 2 -50 -70 22 -116 -59 -56 -99 58 -38 93 -26 93 31 0 49 23 49 83 0 46 -39 46 -40 4 -40 -78 -2 -92 -49 -25 -89 76 -45 127 -13 111 70 -15 74 6 86 60 35 l47 -44 -105 -111 c-119 -127 -140 -142 -131 -90 8 49 -215 191 -279 177 -63 -14 -58 -1 50 122 108 123 95 116 146 88z m-746 -52 c68 -18 54 -40 -36 -55 -154 -25 -159 -148 -7 -215 153 -68 260 1 196 125 -36 71 -15 85 55 36 l57 -40 -40 -77 c-76 -150 -207 -200 -340 -131 -114 59 -128 151 -45 283 55 87 76 97 160 74z m2234 -46 c19 -21 29 -48 22 -60 -19 -30 -56 -3 -43 31 7 19 -4 28 -37 28 -37 0 -45 -8 -37 -40 7 -28 1 -40 -22 -40 -32 0 -46 79 -19 107 27 26 102 12 136 -26z m2972 -52 c33 -16 83 -67 111 -113 l53 -82 -48 -37 c-68 -52 -79 -46 -65 40 23 144 -106 187 -252 83 -107 -76 -54 -200 84 -200 67 0 74 -31 11 -47 -76 -21 -94 -15 -155 47 -183 187 24 432 261 309z m741 -75 c18 -31 12 -35 -51 -31 -81 6 -83 11 -38 75 34 48 37 46 89 -44z m-5489 -104 c-19 -49 270 -194 297 -149 7 10 25 19 41 19 20 0 13 -24 -26 -86 -55 -87 -94 -109 -95 -55 0 49 -263 155 -311 125 -51 -32 -49 -19 13 87 49 83 106 125 81 59z m5593 -85 c61 -68 80 -151 41 -179 -50 -37 -99 -35 -68 3 38 46 19 141 -29 141 -34 0 -40 -13 -40 -92 0 -188 -207 -231 -268 -55 -30 87 -28 104 20 134 54 33 65 21 37 -42 -29 -63 4 -135 62 -135 33 0 39 14 39 93 0 148 121 226 206 132z m-6258 -67 c19 -17 -5 -30 -77 -42 -73 -12 -108 -107 -59 -157 135 -135 375 -54 278 94 -42 63 -31 75 39 44 66 -30 62 -117 -9 -217 -147 -207 -472 -42 -363 184 24 49 43 99 43 112 0 25 116 11 148 -18z m2049 8 c37 -37 13 -100 -26 -67 -21 17 -39 18 -68 2 -57 -30 -77 -26 -88 17 -19 73 120 110 182 48z m3695 -181 c-6 -6 -25 1 -42 15 -38 32 -118 16 -262 -52 -61 -28 -113 -49 -117 -45 -23 27 -51 100 -49 131 0 21 5 25 11 11 21 -52 334 37 340 97 1 15 4 37 5 48 1 11 30 -28 64 -87 33 -59 56 -112 50 -118z m-5133 2 c22 -29 41 -43 41 -31 0 33 74 49 119 25 82 -45 87 -91 21 -231 -57 -122 -109 -177 -86 -92 17 66 -294 154 -350 98 -39 -39 -28 8 28 125 86 180 147 208 227 106z m2558 -477 c3 -240 -4 -370 -18 -390 -19 -25 -21 -24 -11 7 7 20 7 45 0 56 -18 29 -33 714 -17 753 28 66 42 -58 46 -426z m166 339 c27 -59 32 -139 30 -492 l-3 -421 -80 -43 c-44 -24 -87 -54 -96 -68 -38 -60 -304 103 -325 199 -7 31 -20 56 -30 56 -55 0 13 138 116 235 163 154 233 128 101 -37 -58 -72 -62 -86 -42 -139 12 -32 15 -59 6 -59 -8 0 -21 15 -28 33 -7 18 -17 28 -23 23 -16 -17 28 -116 52 -116 12 0 15 11 7 25 -8 14 5 8 28 -13 34 -30 39 -44 21 -65 -18 -22 -16 -25 9 -16 20 8 43 -6 65 -40 64 -97 73 -30 70 497 l-3 512 46 -1 c33 0 56 -21 79 -70z m2920 -20 c267 -32 271 -41 79 -178 -174 -126 -192 -150 -154 -202 36 -48 278 -6 322 57 22 31 31 34 37 12 58 -200 58 -227 -2 -173 -34 31 -279 7 -317 -30 -20 -20 30 -92 74 -106 55 -17 19 -55 -44 -46 -42 6 -53 31 -102 217 -30 116 -60 231 -68 257 -12 43 -10 45 28 21 64 -40 107 5 78 83 -25 64 -114 87 -114 29 0 -53 -31 -32 -56 36 -32 89 -30 104 7 73 18 -15 122 -37 232 -50z m-586 -29 c162 -14 252 -41 222 -67 -5 -4 -79 -54 -165 -111 -86 -58 -163 -124 -172 -147 -13 -36 -18 -30 -37 42 -11 45 -14 83 -7 83 8 0 30 12 49 26 58 42 12 134 -67 134 -33 0 -60 4 -60 8 0 5 -6 25 -13 44 -11 28 -7 32 25 20 21 -9 122 -23 225 -32z m-4347 -40 c33 -37 28 -50 -17 -42 -10 2 -13 -10 -6 -27 17 -44 -5 -38 -46 13 -27 33 -30 50 -13 69 30 35 40 33 82 -13z m-1530 -39 c6 -7 39 -25 75 -40 74 -30 83 -52 25 -67 -56 -14 -50 -51 10 -66 90 -22 170 87 85 118 -14 5 -18 16 -10 25 8 8 37 6 63 -7 l49 -22 -46 -136 c-25 -75 -52 -163 -59 -196 -19 -83 -49 -117 -146 -167 -100 -51 -106 -52 -106 -14 0 40 -72 76 -121 61 -54 -17 -50 -83 6 -96 156 -37 271 -38 292 -1 27 46 30 4 10 -118 -12 -71 -47 -107 -47 -47 0 52 -299 102 -328 55 -35 -57 -44 -12 -21 107 35 190 138 260 213 147 l29 -44 82 47 c124 69 147 153 54 192 -109 45 -250 59 -270 27 -50 -81 -23 57 51 257 10 26 87 16 110 -15z m5292 -52 c7 -29 3 -102 -10 -164 -28 -142 -28 -145 8 -145 17 0 31 -9 33 -20 1 -11 4 -31 6 -45 2 -14 -9 -61 -24 -105 -34 -100 -65 -237 -51 -222 67 66 131 432 76 432 -35 0 -39 37 -8 80 17 24 20 21 12 -15 -6 -25 -2 -40 8 -34 10 6 18 27 19 45 0 30 4 29 30 -5 37 -49 22 -215 -33 -360 -20 -54 -33 -102 -29 -107 9 -9 71 129 71 157 0 22 104 102 116 89 6 -5 -16 -48 -49 -95 -93 -132 -100 -152 -20 -65 l73 80 -11 -70 c-11 -78 -106 -180 -168 -180 -21 0 -44 -9 -51 -20 -7 -11 -21 -20 -32 -20 -11 0 -15 9 -8 20 7 11 -2 35 -20 52 -29 30 -29 648 1 743 13 42 48 28 61 -26z m139 -26 c-16 -70 -104 -143 -105 -86 -1 37 92 171 108 156 5 -6 4 -37 -3 -70z m-4851 37 c0 -11 21 -20 47 -20 65 0 173 -40 173 -64 0 -11 20 -37 45 -59 l45 -40 -85 12 c-96 13 -250 86 -235 112 6 9 0 23 -13 31 -14 9 -18 6 -9 -9 9 -14 2 -23 -17 -23 -18 0 -31 17 -31 40 0 27 13 40 40 40 22 0 40 -9 40 -20z m4491 2 c-6 -10 0 -23 14 -29 15 -6 12 -10 -9 -11 -20 -1 -30 -13 -25 -28 6 -15 -6 -27 -31 -28 -22 -2 -40 7 -40 19 0 17 -7 16 -24 -1 -13 -13 -33 -24 -45 -23 -35 1 54 59 91 59 18 0 39 14 45 30 7 17 17 30 24 30 6 0 6 -8 0 -18z m129 -146 c0 -98 -7 -137 -20 -124 -24 24 -47 221 -29 249 31 51 49 6 49 -125z m-4695 -33 c26 -101 297 -213 327 -136 7 18 20 28 29 22 10 -6 9 -33 -2 -61 -10 -28 -19 -73 -19 -99 0 -59 -31 -65 -46 -9 -21 80 -293 17 -379 -87 -34 -42 -35 -39 -22 77 15 141 19 149 54 101 23 -32 34 -33 100 -9 l73 26 -55 45 c-58 48 -105 60 -105 27 0 -11 -9 -20 -20 -20 -18 0 -14 54 11 135 12 37 43 30 54 -12z m1184 -111 c-7 -28 -27 -62 -44 -76 -28 -23 -29 -21 -7 20 14 26 26 74 26 107 2 46 7 53 20 30 9 -17 12 -54 5 -81z m4487 -6 c26 -123 18 -153 -23 -96 -29 39 -297 34 -337 -6 -27 -27 4 -85 58 -105 65 -25 43 -55 -33 -43 -50 7 -61 18 -61 61 0 29 -6 87 -13 128 l-12 75 97 0 c163 1 252 22 263 63 17 65 36 40 61 -77z m-4186 -35 c39 6 39 6 1 -22 -45 -34 -39 -43 37 -57 32 -6 90 -32 130 -58 40 -27 93 -55 117 -62 25 -8 45 -27 45 -43 0 -16 22 -34 49 -40 26 -7 53 -27 60 -44 10 -27 17 -26 51 5 42 38 38 41 68 -58 5 -15 0 -36 -11 -47 -32 -32 27 -146 135 -263 129 -140 143 -175 67 -178 -32 -1 -88 -24 -125 -53 -46 -34 -93 -51 -144 -51 -42 0 -71 -5 -65 -12 26 -25 -54 -82 -84 -60 -22 17 -25 16 -14 -3 9 -15 5 -26 -11 -27 -17 -1 -18 -4 -3 -10 25 -11 -10 -108 -38 -108 -9 0 -25 -23 -35 -51 -11 -28 -28 -46 -38 -40 -10 6 -23 -2 -29 -17 -6 -16 4 -34 21 -41 42 -16 25 -31 -47 -41 -31 -4 -46 -3 -32 3 36 15 31 54 -5 40 -16 -7 -31 -3 -32 8 -2 10 -4 27 -5 37 -2 10 -11 26 -21 35 -11 10 -12 7 -4 -8 8 -14 5 -25 -7 -25 -29 0 -26 55 4 67 15 6 11 10 -10 11 -19 1 -35 12 -35 23 0 12 8 16 18 10 10 -6 8 17 -5 52 -18 50 -18 65 2 72 14 4 25 16 25 26 0 10 -13 13 -30 6 -23 -9 -30 5 -30 62 0 40 -8 68 -18 62 -31 -19 -36 54 -9 121 19 47 19 68 2 85 -17 17 -17 23 1 23 38 0 28 40 -11 42 -23 1 -26 5 -9 12 20 8 19 16 -6 34 -18 13 -35 46 -39 73 -3 27 -12 73 -20 102 -9 32 -5 58 8 66 12 8 18 20 13 29 -5 8 -3 66 6 128 8 63 9 114 2 114 -7 0 -13 13 -13 29 0 16 9 27 21 25 12 -2 19 9 16 24 -5 21 1 23 20 8 14 -11 44 -18 66 -15z m-194 -344 c-11 -14 -10 -28 1 -35 26 -16 6 -85 -33 -116 -27 -22 -29 -21 -14 4 10 19 1 16 -27 -8 -48 -43 -53 -27 -20 67 16 47 16 76 0 108 -29 56 -36 90 -20 86 7 -2 34 24 60 57 l47 59 12 -99 c7 -55 4 -110 -6 -123z m5049 48 c10 -99 -2 -117 -45 -65 -27 33 -192 24 -265 -13 -45 -23 -47 -128 -3 -145 77 -29 246 -12 285 29 37 41 38 40 51 -43 15 -92 0 -127 -31 -72 -18 32 -38 34 -157 23 -129 -13 -140 -11 -188 38 -114 113 -49 271 119 286 156 15 189 25 189 61 0 71 35 -7 45 -99z m-4158 -221 c27 -47 110 -151 183 -230 74 -79 127 -144 119 -144 -54 0 -409 311 -409 358 0 10 -5 32 -11 49 -8 18 2 33 25 39 20 5 37 10 39 12 2 1 26 -37 54 -84z m-2947 38 c0 -61 304 -77 338 -17 31 56 42 21 29 -92 -13 -104 -13 -104 -51 -64 -52 56 -303 61 -334 6 -16 -27 -21 -8 -21 80 -1 64 8 115 19 115 11 0 20 -12 20 -28z m4340 -30 c0 -49 -83 -154 -178 -228 -45 -34 -82 -72 -82 -83 0 -12 -9 -8 -19 8 -14 21 0 52 47 110 36 45 90 119 119 165 53 86 113 100 113 28z m-1197 -123 c29 -29 56 -70 61 -91 6 -29 22 -37 70 -33 69 5 103 -41 64 -87 -19 -23 -12 -24 42 -5 55 19 69 17 105 -19 l41 -41 -44 -55 -43 -55 64 -66 c36 -37 74 -67 85 -67 11 0 -5 25 -34 56 -66 69 -66 71 -3 113 70 46 111 12 100 -81 -8 -56 -4 -63 17 -43 15 14 22 38 16 54 -10 26 -8 26 21 0 29 -26 26 -34 -27 -90 -57 -60 -58 -63 -22 -95 35 -32 40 -31 84 16 26 28 56 50 67 50 44 0 313 -184 300 -206 -10 -16 -17 -15 -22 2 -5 13 -17 19 -27 13 -10 -6 -18 -3 -18 8 0 17 -74 69 -195 136 -96 53 -61 -123 44 -220 102 -95 193 -163 219 -163 10 0 25 -18 34 -40 12 -32 15 -33 17 -6 0 18 9 39 19 45 10 6 14 -5 9 -25 -5 -20 4 -49 22 -63 17 -14 31 -38 31 -53 0 -16 13 -28 28 -28 15 0 59 -29 97 -65 72 -68 239 -177 252 -165 15 15 -46 150 -68 150 -13 0 -39 18 -60 41 -20 22 -46 37 -59 32 -12 -5 -24 17 -26 51 -3 33 3 54 14 47 11 -7 30 4 42 24 19 30 20 29 10 -10 -8 -26 -4 -45 9 -45 26 0 28 73 2 89 -10 6 -24 3 -31 -9 -21 -34 -65 -22 -76 20 -7 27 -21 36 -42 28 -43 -16 -40 -41 5 -53 20 -5 36 -24 36 -42 0 -38 -44 -44 -65 -10 -10 16 -5 18 14 6 24 -14 24 -12 1 17 -15 18 -38 28 -50 21 -13 -8 -17 -7 -10 1 14 16 -86 127 -107 118 -7 -4 -20 4 -28 17 -8 14 -6 18 7 10 32 -20 52 64 24 98 -15 19 -16 29 -3 29 12 0 38 -27 57 -60 20 -33 43 -60 52 -60 9 0 7 -17 -4 -38 -15 -29 -13 -41 10 -50 19 -7 38 6 53 38 22 50 63 51 44 1 -13 -32 24 -60 41 -32 44 71 202 -144 216 -294 4 -46 24 -102 44 -124 35 -38 29 -51 -19 -42 -11 2 -9 -8 5 -22 50 -50 24 -63 -30 -14 -61 56 -214 148 -195 117 7 -11 52 -43 101 -72 93 -54 133 -132 44 -86 -58 31 -262 201 -366 306 -44 45 -154 148 -245 228 -90 81 -164 160 -164 176 0 16 -17 36 -38 44 -46 17 -506 447 -493 460 5 5 -37 62 -95 126 -57 63 -125 155 -152 202 l-48 86 58 -49 c32 -28 82 -73 111 -102z m995 26 c-35 -52 -87 -120 -115 -150 -28 -30 -40 -55 -27 -55 13 0 24 -11 25 -25 0 -14 46 -56 103 -95 132 -89 161 -119 148 -152 -6 -15 0 -33 12 -40 13 -9 17 -5 8 9 -19 30 33 30 64 -1 13 -13 30 -17 37 -9 8 8 -5 28 -29 45 -69 48 -52 72 20 29 48 -30 70 -34 91 -17 20 17 35 15 60 -11 46 -45 7 -86 -52 -55 -51 28 -74 -4 -29 -41 23 -18 29 -19 19 -2 -9 14 -7 25 4 25 23 0 45 -51 29 -67 -6 -7 -30 -1 -54 11 -38 20 -39 19 -15 -11 39 -47 14 -41 -93 21 -215 125 -392 246 -359 246 19 0 86 -32 150 -71 63 -39 96 -55 73 -35 -73 63 -237 174 -258 175 -46 2 -134 91 -122 123 7 19 25 27 44 20 17 -7 39 -12 49 -12 10 0 13 -13 6 -30 -22 -57 30 -30 56 30 15 33 34 60 43 60 9 0 11 8 5 18 -9 15 140 160 165 162 3 0 -23 -43 -58 -95z m-649 37 c6 -11 38 -25 70 -32 32 -7 63 -26 69 -42 6 -17 23 -28 37 -26 33 5 155 -42 155 -60 0 -58 -52 -53 -158 15 -165 107 -235 162 -208 162 13 1 29 -7 35 -17z m3271 -150 c0 -59 311 -80 333 -22 30 79 51 19 44 -128 -11 -254 -183 -355 -355 -210 -64 53 -100 388 -42 388 11 0 20 -13 20 -28z m-6446 -81 c34 -40 46 -78 46 -150 0 -53 6 -124 13 -158 13 -70 -22 -89 -43 -23 -20 63 -330 51 -330 -12 0 -16 -8 -28 -18 -28 -25 0 -39 238 -18 314 38 138 250 173 350 57z m2846 -131 c0 -9 -45 -45 -100 -80 -55 -35 -100 -68 -100 -73 0 -11 77 29 143 76 77 53 106 47 175 -41 l62 -78 -71 -42 c-39 -23 -78 -42 -87 -42 -8 0 -36 -22 -62 -50 -26 -27 -63 -50 -82 -50 -20 0 -43 -12 -52 -26 -9 -14 -108 -86 -220 -160 -239 -158 -284 -226 -305 -458 0 -8 -46 -34 -102 -58 -55 -24 -96 -48 -90 -53 23 -24 -34 -85 -80 -85 -51 0 -62 -19 -30 -51 17 -17 -27 -84 -219 -334 -46 -59 -37 -114 12 -74 23 19 28 16 28 -19 0 -54 8 -53 90 10 38 28 77 46 87 40 11 -7 35 -6 55 1 33 13 32 15 -3 27 -32 11 -26 18 34 38 43 14 77 40 83 63 6 23 27 39 53 39 24 0 39 8 33 17 -6 9 14 34 44 56 86 63 100 69 114 47 7 -11 -10 -30 -38 -43 -28 -12 -46 -30 -41 -39 6 -9 -10 -27 -34 -40 -52 -28 -131 -98 -110 -98 8 0 38 15 67 34 l52 34 -48 -72 c-26 -40 -52 -72 -58 -70 -5 2 -50 -8 -100 -21 -49 -13 -108 -28 -130 -33 -22 -6 20 -8 93 -5 109 4 145 14 203 59 89 68 88 68 78 -15 -9 -73 60 -247 110 -277 14 -9 26 -26 26 -37 0 -15 -8 -15 -27 0 -20 17 -26 15 -26 -6 0 -16 9 -24 20 -17 12 8 15 -1 7 -21 -7 -18 -5 -33 4 -33 24 0 47 97 30 124 -9 14 -5 16 12 6 20 -12 23 -7 14 18 -8 20 -6 29 6 22 11 -7 20 -4 20 6 0 10 47 17 105 14 58 -3 130 -6 160 -7 30 -2 55 -10 55 -19 0 -21 -218 -63 -286 -55 -38 4 -52 -6 -59 -38 -6 -31 2 -42 29 -42 20 0 36 7 36 15 0 9 9 16 20 16 41 0 18 -40 -29 -51 -31 -8 -44 -23 -37 -41 7 -20 18 -23 35 -9 14 12 32 14 41 6 9 -8 10 -4 3 8 -15 27 93 58 127 37 11 -7 21 -1 22 14 1 20 3 20 11 1 6 -14 18 -25 28 -25 10 0 13 13 6 30 -8 23 4 30 51 30 34 0 62 -8 62 -19 0 -10 -18 -15 -40 -11 -22 4 -40 -1 -40 -11 0 -11 14 -19 30 -19 17 0 30 -13 30 -30 0 -16 -9 -30 -20 -30 -11 0 -20 -13 -20 -29 0 -15 -13 -41 -29 -57 -24 -24 -25 -35 -2 -66 27 -37 182 104 273 250 18 29 56 74 86 101 l53 48 -23 -63 c-12 -35 -30 -64 -40 -64 -11 0 -28 -22 -38 -50 -10 -27 -28 -50 -40 -50 -11 0 -19 -7 -17 -15 2 -8 -8 -42 -21 -75 -87 -211 -28 -223 78 -16 39 78 105 182 146 232 41 50 74 101 74 113 0 12 20 30 45 40 30 12 -61 20 -275 22 -346 3 -416 14 -426 62 -8 44 53 63 88 28 42 -42 186 -58 419 -46 112 6 213 5 224 -2 37 -25 38 -72 2 -103 -21 -17 -48 -90 -65 -174 -22 -106 -52 -178 -113 -267 l-83 -123 -93 14 c-51 7 -120 29 -153 48 -80 46 -135 66 -121 43 6 -10 2 -42 -10 -73 -23 -62 26 -144 57 -94 11 18 22 14 39 -13 18 -30 17 -40 -5 -48 -19 -8 -24 -1 -16 23 9 27 7 29 -14 10 -20 -18 -32 -17 -55 6 -20 21 -37 23 -54 9 -14 -11 -32 -14 -41 -6 -9 8 -11 5 -4 -8 18 -30 320 -124 514 -160 27 -5 53 -13 58 -18 13 -14 -58 -9 -153 9 -63 12 -90 10 -107 -11 -13 -15 -35 -27 -50 -27 -16 0 -26 -7 -25 -15 2 -8 -8 -39 -22 -69 -21 -42 -21 -67 -4 -110 31 -73 0 -403 -40 -428 -36 -23 -62 -23 -47 1 6 11 -3 43 -21 70 -19 28 -28 65 -21 83 7 18 4 44 -7 57 -18 21 -31 107 -51 330 -5 53 -20 95 -39 106 -18 9 -27 26 -20 36 6 11 1 19 -11 19 -12 0 -17 9 -10 20 7 11 -2 20 -20 20 -18 0 -27 8 -21 18 6 10 -32 15 -84 12 -95 -5 -155 18 -133 53 6 10 0 16 -14 12 -14 -3 -37 18 -51 45 -15 29 -27 37 -27 20 -1 -18 -15 -7 -35 25 -19 30 -48 55 -66 55 -17 0 -42 11 -56 25 -20 20 -23 18 -12 -10 10 -27 6 -32 -19 -23 -17 7 -32 21 -32 31 0 11 -9 14 -19 7 -11 -6 -26 11 -33 39 -8 33 -26 51 -51 51 -24 0 -34 9 -26 22 10 15 0 18 -28 9 -35 -11 -40 -7 -30 21 11 28 5 32 -33 22 -31 -8 -56 -1 -75 22 -18 22 -23 23 -13 4 8 -16 -13 -3 -46 30 -33 33 -56 67 -51 76 17 32 -42 74 -104 74 l-64 0 85 89 c47 49 96 110 108 135 12 25 -17 2 -66 -51 -117 -131 -130 -122 -429 289 -21 29 -10 42 85 100 61 37 110 74 110 82 0 9 10 16 21 16 21 0 197 113 219 140 6 7 46 34 90 60 44 27 89 58 100 70 70 77 327 230 386 230 28 0 52 30 83 103 51 119 216 293 334 353 85 44 382 244 361 244 -6 0 -102 -54 -211 -120 -211 -128 -271 -151 -173 -67 l60 51 -85 -47 c-56 -31 -81 -57 -75 -78 6 -19 -20 -49 -73 -84 -87 -56 -118 -56 -116 1 2 28 5 27 19 -6 16 -38 17 -38 19 5 0 25 10 45 20 45 26 0 105 79 139 140 25 45 25 47 -2 25 -25 -21 -35 -20 -56 5 -22 26 -20 36 12 60 46 35 62 37 79 9 8 -14 29 -11 60 10 76 49 105 36 39 -18 -44 -37 -51 -50 -26 -50 18 -1 40 9 47 21 7 12 29 17 49 12 25 -6 32 1 26 24 -5 22 22 56 83 99 50 36 91 73 91 82 0 10 18 13 40 7 22 -6 40 -18 40 -26z m249 -259 c6 -10 -9 -25 -34 -32 -25 -8 -102 -51 -171 -94 -69 -44 -131 -75 -136 -69 -11 10 289 213 316 214 7 0 19 -8 25 -19z m1213 -90 c15 9 19 7 11 -6 -7 -12 -3 -25 10 -29 16 -6 17 -19 5 -42 -17 -30 -26 -28 -94 19 -58 42 -69 59 -51 81 19 23 28 22 59 -5 20 -18 46 -26 60 -18z m-1102 2 c0 -14 -22 -47 -50 -73 -27 -26 -50 -40 -50 -31 0 9 -13 5 -30 -9 -16 -13 -25 -31 -20 -40 5 -9 -51 -68 -124 -133 -74 -64 -231 -207 -349 -317 -227 -211 -326 -283 -346 -251 -7 10 42 56 108 101 67 45 121 86 121 92 0 6 -25 -6 -55 -26 -30 -21 -80 -50 -112 -66 -31 -16 -65 -46 -77 -67 -15 -28 -24 -32 -36 -13 -11 19 -31 13 -79 -23 -49 -36 -57 -49 -32 -54 18 -3 46 5 62 18 37 30 66 8 33 -25 -13 -13 -24 -33 -24 -45 1 -12 18 2 40 29 22 28 39 40 40 28 0 -26 -69 -92 -83 -78 -6 5 -35 -22 -66 -60 -54 -68 -111 -93 -111 -47 0 12 -18 0 -40 -28 -49 -62 -52 -90 -7 -52 29 23 32 23 24 -3 -6 -16 -23 -30 -39 -31 -15 0 -41 -8 -56 -18 -19 -11 -24 -10 -15 5 8 11 5 27 -7 34 -11 7 -20 3 -20 -9 0 -11 -16 -21 -36 -21 -20 0 -47 -11 -60 -24 -37 -37 -29 -2 11 47 85 106 165 185 160 157 -13 -74 58 -20 108 82 39 80 73 120 116 138 34 13 61 38 61 54 0 15 8 23 18 17 20 -12 42 34 42 88 0 48 59 72 62 25 2 -19 1 -46 -1 -60 -3 -21 6 -22 43 -3 80 42 316 222 316 242 0 10 16 24 35 32 19 7 53 33 77 59 23 25 46 41 51 36 5 -5 85 71 178 169 163 171 219 211 219 154z m-1777 -31 c-22 -14 -22 -24 0 -60 36 -57 -3 -83 -112 -75 -67 4 -134 53 -72 53 13 0 17 19 9 50 -12 49 -10 50 95 50 67 0 97 -7 80 -18z m1849 -133 c-4 -50 -14 -97 -22 -105 -9 -8 -10 17 -2 55 9 50 7 64 -9 48 -12 -12 -26 -70 -31 -129 -11 -112 -7 -123 110 -278 l47 -64 -57 30 c-32 17 -91 63 -131 104 l-74 73 17 -76 17 -77 -48 56 c-85 98 -69 182 64 329 136 149 127 147 119 34z m-2950 -64 c13 -41 45 -120 71 -175 141 -302 -72 -470 -221 -175 -37 73 -64 69 -149 -21 -38 -41 -42 -58 -25 -91 13 -24 15 -45 4 -52 -11 -6 -38 40 -62 104 -23 63 -55 135 -71 159 -18 28 -21 48 -9 56 11 7 26 -2 32 -19 32 -82 396 162 373 251 -18 71 32 39 57 -37z m2388 -5 c-6 -10 -29 -14 -50 -10 -26 5 -40 -3 -40 -23 0 -20 11 -27 31 -19 22 8 17 -6 -15 -45 l-46 -57 -55 38 c-30 21 -55 54 -54 72 0 32 2 32 26 0 40 -52 77 -51 86 2 12 76 44 105 90 81 21 -12 33 -29 27 -39z m724 17 c47 -45 74 -457 29 -457 -63 0 -93 88 -100 292 -7 221 -2 233 71 165z m1092 -158 c53 -32 57 -39 22 -39 -56 0 -171 147 -167 214 0 9 19 -18 41 -60 22 -42 69 -93 104 -115z m-2416 60 c-33 -63 -71 -108 -104 -120 -71 -28 -81 -10 -10 19 36 15 73 57 100 113 24 49 48 89 54 89 6 0 -12 -45 -40 -101z m370 -28 c0 -16 -19 -40 -41 -52 -39 -20 -39 -25 -11 -68 27 -42 27 -46 -4 -44 -19 2 -32 -7 -30 -19 2 -12 -20 -21 -50 -20 -30 2 -65 -5 -79 -15 -65 -47 3 123 81 201 51 50 134 61 134 17z m476 -56 c-13 -25 -22 -52 -20 -61 3 -10 -4 -11 -16 -4 -11 7 -20 -6 -20 -29 0 -23 13 -41 30 -41 17 0 31 -13 33 -30 4 -56 7 -67 22 -82 8 -8 15 -2 15 13 0 40 39 -5 49 -57 5 -23 24 -75 43 -115 37 -78 16 -118 -48 -94 -18 7 -25 3 -18 -9 29 -47 -84 -68 -129 -23 -38 38 -44 39 -61 10 -10 -18 -31 -33 -46 -33 -36 0 -134 90 -116 107 7 7 -3 13 -21 13 -19 0 -40 16 -47 35 -7 19 -23 42 -35 50 -13 9 9 42 59 88 367 337 369 338 326 262z m932 -223 c164 -153 188 -183 167 -210 -22 -29 -21 -29 11 -4 32 26 45 19 131 -65 52 -51 106 -93 119 -93 52 0 128 -65 100 -85 -20 -14 -18 -16 7 -8 42 13 109 -34 123 -87 9 -35 4 -40 -33 -29 -23 7 -58 16 -76 21 -18 5 -39 29 -47 54 l-15 44 -9 -46 c-12 -59 -77 -51 -75 10 1 23 -8 38 -21 33 -12 -5 -49 6 -81 23 l-59 31 76 -8 c62 -6 75 -2 69 25 -4 17 -22 31 -41 29 -18 -1 -29 6 -23 15 25 40 -51 15 -80 -26 l-30 -44 -23 64 c-12 35 -31 64 -42 64 -12 0 -10 -13 4 -30 14 -17 21 -36 14 -42 -17 -18 -57 70 -42 95 7 12 1 29 -13 38 -30 18 -59 7 -59 -23 0 -11 10 -14 23 -6 13 8 18 5 11 -6 -29 -47 -159 -28 -149 23 6 33 1 44 -17 37 -51 -19 -111 50 -114 130 0 14 -11 22 -23 17 -14 -5 -25 18 -28 60 -2 37 -13 90 -23 117 -11 28 -14 50 -9 50 6 0 0 20 -13 44 l-23 43 60 -38 c34 -22 147 -119 253 -217z m2452 116 c208 -34 191 -34 230 4 56 57 52 19 -14 -129 -61 -136 -105 -191 -81 -101 26 100 -124 108 -166 9 -50 -119 6 -253 79 -193 55 46 51 17 -15 -98 l-63 -110 -11 90 c-6 55 -57 180 -132 324 -127 244 -131 267 -48 245 28 -7 128 -26 221 -41z m-4657 -107 c-37 -31 -176 -132 -310 -223 -134 -91 -276 -189 -317 -217 -41 -28 -75 -62 -75 -76 -1 -14 -10 -25 -21 -25 -32 0 -23 75 11 88 17 6 27 20 20 30 -6 10 3 23 20 30 19 7 26 3 18 -10 -10 -15 -1 -15 29 1 23 12 42 27 42 33 0 6 -8 5 -19 -1 -29 -18 -48 30 -22 56 18 17 20 14 8 -17 -13 -37 -12 -38 23 -10 22 17 31 20 23 5 -9 -14 -10 -25 -4 -25 21 0 170 115 160 124 -5 5 3 9 18 9 34 0 213 124 213 148 0 10 22 24 50 31 28 7 44 21 37 34 -9 13 -1 16 20 8 18 -7 33 -4 33 7 0 17 68 55 100 57 6 0 -20 -25 -57 -57z m1644 -45 c53 -42 106 -71 117 -64 11 7 51 -18 89 -55 74 -71 131 -154 87 -127 -18 11 -19 5 -1 -28 26 -49 -128 -65 -175 -18 -19 19 -24 16 -24 -10 0 -19 -14 -34 -32 -34 -22 0 -29 16 -25 58 5 50 -14 77 -129 183 -149 136 -168 188 -26 72 113 -93 130 -92 57 2 -119 153 -110 156 62 21z m-3178 -107 c60 -39 78 -86 49 -122 -13 -15 -25 -43 -27 -62 -2 -19 -11 -102 -20 -184 l-17 -149 -48 108 c-26 59 -43 120 -37 134 5 14 -1 23 -14 21 -13 -3 -26 13 -29 35 -3 22 -9 65 -14 96 -5 34 3 65 21 80 16 13 40 35 53 48 31 31 27 31 83 -5z m4324 -24 c-8 -24 14 -54 69 -95 211 -159 256 -211 147 -170 -77 30 -125 24 -134 -15 -6 -29 -21 -21 -80 40 -40 41 -81 75 -91 75 -10 0 -35 19 -56 43 -26 29 -29 40 -9 34 16 -5 55 20 87 57 66 74 81 82 67 31z m1452 -54 c-8 -41 20 -82 153 -225 89 -96 162 -181 162 -189 0 -12 -154 -30 -375 -42 l-84 -5 98 -110 c87 -98 102 -107 137 -86 22 13 44 19 50 13 12 -12 -120 -193 -148 -204 -25 -9 -23 32 2 47 69 43 -190 379 -282 365 -69 -10 -72 2 -17 72 40 51 50 53 237 53 240 0 241 1 119 115 -87 81 -105 90 -138 69 -52 -33 -49 -7 13 104 54 97 89 108 73 23z m-3375 -31 c0 -16 -16 -32 -35 -36 -25 -5 -35 6 -35 36 0 30 10 41 35 36 19 -4 35 -20 35 -36z m-1908 -22 c153 -109 176 -362 46 -516 -138 -165 -380 -53 -420 193 -42 268 181 461 374 323z m1778 -7 c0 -16 -9 -34 -20 -41 -41 -25 -17 -70 69 -129 77 -53 91 -57 106 -30 38 68 317 74 396 8 27 -22 122 -6 140 23 6 10 -5 12 -25 6 -30 -10 -31 -8 -6 10 36 25 87 29 72 5 -12 -19 121 -10 287 18 59 11 148 19 196 19 61 0 83 7 73 23 -18 30 27 5 84 -47 46 -41 244 -45 273 -6 9 13 14 11 15 -3 0 -13 45 -57 100 -97 133 -98 131 -100 -105 -100 -186 0 -218 -6 -345 -63 -196 -88 -223 -94 -237 -57 -9 24 12 42 82 71 52 22 118 52 145 67 59 33 254 72 369 73 80 0 80 1 31 28 -27 15 -54 22 -60 14 -16 -21 -149 -17 -165 6 -10 14 -20 13 -31 -4 -13 -19 -27 -15 -59 15 -55 51 -129 51 -435 0 -132 -22 -262 -41 -290 -43 -47 -2 -47 -3 -5 -11 26 -5 45 -23 45 -43 0 -19 36 -57 79 -84 93 -57 101 -79 31 -79 -61 0 -210 129 -210 182 0 46 -16 48 -62 6 -22 -20 -76 -33 -143 -35 -84 -2 -132 -18 -214 -69 -121 -75 -136 -73 -89 9 34 58 214 132 378 156 33 4 -6 5 -87 1 -80 -5 -159 -18 -174 -31 -15 -12 -37 -17 -48 -10 -12 8 -21 4 -21 -8 0 -36 -158 64 -213 135 -49 64 -49 68 -16 105 41 46 89 51 89 10z m2232 -186 c-6 -5 10 -27 34 -47 27 -22 34 -37 17 -37 -26 -1 -101 75 -102 103 -1 8 13 9 30 3 17 -7 26 -16 21 -22z m-900 -8 c8 -14 -6 -40 -34 -61 -26 -21 -61 -49 -78 -62 -45 -36 -144 -77 -156 -65 -6 6 -7 14 -2 18 4 3 42 31 83 62 41 31 75 68 75 82 0 22 26 37 84 47 7 1 20 -8 28 -21z m1056 -66 c18 -28 28 -51 21 -51 -25 0 -146 109 -137 124 15 24 78 -16 116 -73z m-1348 -30 c0 -91 -34 -124 -73 -70 -35 48 -34 79 4 118 50 50 69 37 69 -48z m-1126 11 c-7 -17 4 -32 27 -38 22 -6 39 -25 39 -43 0 -47 -61 -64 -90 -24 -13 18 -34 33 -46 33 -45 0 -35 51 14 73 69 31 68 31 56 -1z m584 -105 c37 -5 90 -21 119 -35 63 -34 -212 -21 -297 14 l-50 20 50 15 c28 8 64 10 80 5 17 -6 60 -15 98 -19z m2577 -12 c-4 -34 7 -46 45 -52 61 -8 107 -48 183 -157 65 -95 38 -90 -105 19 -40 30 -78 55 -86 55 -8 0 -27 11 -43 25 -83 74 -89 78 -89 47 0 -34 -95 -144 -110 -128 -6 5 12 34 40 64 27 30 50 62 50 72 0 15 95 100 112 100 4 0 5 -20 3 -45z m-4445 -133 l60 -69 -53 13 c-48 13 -61 0 -179 -179 l-126 -192 66 -59 c39 -35 80 -55 99 -49 103 33 123 36 122 20 0 -9 -27 -47 -60 -83 l-60 -66 -96 106 c-262 290 -284 319 -204 277 58 -31 81 -13 197 150 74 103 106 167 103 205 -5 88 1 97 37 44 19 -27 61 -80 94 -118z m3370 106 c0 -6 -18 -5 -40 2 -22 7 -40 5 -40 -5 0 -77 -292 -138 -489 -102 -185 34 -162 58 51 55 158 -2 190 4 241 41 44 33 73 40 127 30 47 -9 70 -6 70 9 0 17 11 18 40 2 22 -12 40 -26 40 -32z m-2130 -8 c0 -17 -20 -33 -45 -36 -44 -7 -62 32 -31 63 23 24 76 5 76 -27z m1168 -91 c95 -152 94 -149 42 -149 -38 0 -40 -15 -44 -275 -2 -151 -5 -318 -6 -370 -2 -52 5 -95 14 -95 10 0 13 -9 6 -20 -7 -11 -43 -20 -81 -20 -38 0 -69 9 -69 20 0 11 9 20 20 20 47 0 44 101 -5 165 -72 96 -96 148 -83 182 16 43 68 17 68 -34 1 -24 19 -65 42 -93 23 -27 35 -38 27 -23 -11 21 -16 345 -10 580 1 16 14 22 31 16 40 -16 38 11 -6 69 -61 81 -88 158 -56 158 15 0 65 -59 110 -131z m-2157 -154 c18 -30 14 -32 -27 -16 -54 20 -86 5 -83 -39 2 -42 -31 -82 -56 -67 -12 7 -15 4 -8 -8 7 -11 7 -49 0 -83 l-12 -62 -38 43 c-47 55 -34 87 89 226 35 39 35 54 4 141 -14 42 93 -69 131 -135z m4213 -27 c197 -142 258 -173 307 -158 57 18 49 -1 -44 -111 -84 -100 -136 -132 -98 -60 18 32 11 48 -34 90 l-54 51 -58 -58 c-74 -73 -57 -217 23 -206 63 9 55 -18 -25 -81 -86 -69 -85 -69 -75 15 8 67 -26 254 -88 483 -49 180 -55 179 146 35z m-5060 -8 c76 -97 46 -116 -48 -30 -42 38 -83 70 -91 70 -8 0 -15 8 -15 18 0 26 125 -22 154 -58z m917 -134 c95 -80 114 -117 49 -96 -60 19 -261 -392 -222 -454 46 -74 3 -63 -96 26 -110 99 -121 120 -59 113 62 -7 269 385 237 446 -31 57 -9 48 91 -35z m3781 -71 c3 -121 160 -406 224 -403 63 2 56 -11 -57 -109 -102 -88 -142 -100 -98 -29 35 56 -162 466 -224 466 -35 0 -28 13 45 79 109 99 108 99 110 -4z m-241 -396 c7 -159 14 -315 16 -347 5 -103 -34 -74 -196 142 -87 116 -175 216 -195 221 -41 11 -49 45 -11 45 14 0 58 22 98 49 77 53 108 49 73 -9 -25 -39 10 -107 126 -252 l63 -78 -13 110 c-31 265 -36 285 -76 295 -34 9 -31 16 28 66 82 69 73 95 87 -242z m-1197 195 c35 -21 15 -54 -33 -54 -38 0 -72 -129 -64 -240 4 -44 1 -46 -18 -15 -35 58 -33 141 5 205 20 33 36 92 37 130 0 62 3 66 23 30 12 -22 35 -47 50 -56z m-1958 -24 c20 -25 50 -49 66 -53 26 -6 26 -19 3 -102 -34 -119 -65 -122 -65 -7 0 195 -132 229 -225 57 -129 -238 -54 -467 124 -376 53 28 61 28 61 2 0 -137 -284 -69 -341 82 -110 290 203 619 377 397z m1059 -129 c-7 -27 -2 -35 17 -27 17 6 28 -3 28 -24 0 -23 -10 -30 -32 -22 -17 7 -39 12 -49 12 -10 0 -8 23 5 50 27 59 45 66 31 11z m990 -70 c45 -32 3 -71 -44 -42 -12 8 -21 4 -21 -8 0 -11 -9 -21 -20 -21 -11 0 -20 13 -20 28 0 16 -11 33 -25 39 -14 5 -5 11 20 11 35 2 46 15 48 57 2 47 4 48 11 10 5 -24 28 -58 51 -74z m-1763 44 c103 -47 125 -75 59 -75 -31 0 -48 -28 -79 -135 -88 -296 -92 -324 -65 -368 40 -63 20 -62 -108 7 -108 58 -114 65 -69 76 80 19 213 459 156 516 -36 36 -3 29 106 -21z m1024 23 c-13 -13 -18 -34 -13 -48 5 -14 0 -32 -12 -39 -12 -8 -21 -7 -19 3 6 37 -3 64 -27 72 -14 4 -9 6 10 3 19 -3 35 3 35 13 0 10 11 18 24 18 18 0 18 -6 2 -22z m2014 -94 c31 -68 37 -104 23 -134 -23 -48 -69 43 -89 175 -15 97 13 80 66 -41z m-1856 -42 c-10 -7 -23 -25 -29 -42 -7 -18 -12 -8 -13 24 -1 29 7 59 18 66 11 7 21 32 23 56 2 24 7 13 12 -24 4 -37 0 -73 -11 -80z m1226 13 c1 -156 101 -451 157 -460 33 -6 15 -20 -75 -61 -105 -49 -184 -59 -114 -15 54 33 -55 499 -121 516 -57 15 -45 31 58 78 52 24 95 44 95 45 0 1 0 -45 0 -103z m-285 -11 c-3 -14 16 -55 43 -90 67 -89 93 -256 37 -241 -47 12 -77 68 -95 174 -17 106 -50 153 -110 155 l-50 2 50 16 c68 23 131 14 125 -16z m-1755 -159 c27 -330 52 -475 85 -500 56 -43 15 -47 -102 -11 -107 32 -149 66 -83 66 32 0 45 169 15 186 -106 60 -226 -36 -166 -132 34 -55 16 -61 -67 -21 -80 38 -90 58 -35 72 33 9 222 301 285 440 39 87 54 66 68 -100z m1380 128 c-32 -14 -82 -21 -110 -15 -43 10 -39 13 30 24 127 20 144 18 80 -9z m270 -32 c0 -10 -15 -28 -34 -38 -34 -19 11 -433 55 -505 47 -75 179 59 179 181 0 82 37 38 50 -60 17 -125 33 -111 -203 -180 -197 -58 -245 -61 -177 -12 59 43 -5 510 -72 528 -61 16 -44 42 37 57 41 7 89 21 105 30 40 22 60 22 60 -1z m-952 -104 c101 -46 110 -200 15 -260 -38 -24 -38 -25 10 -63 102 -80 93 -250 -14 -284 -94 -30 -352 10 -304 47 35 27 44 62 55 203 6 94 16 198 21 233 7 41 -1 74 -20 94 -17 16 -31 35 -31 42 0 20 217 11 268 -12z m531 -6 c125 -65 177 -300 102 -465 -103 -227 -391 -175 -429 78 -40 267 142 482 327 387z m1107 -198 c-15 -23 -85 66 -85 107 0 19 18 8 49 -29 26 -32 42 -67 36 -78z"/> <path d="M4936 7985 c-121 -139 31 -361 153 -226 43 48 51 183 13 228 -35 43 -128 42 -166 -2z"/> <path d="M3571 7829 c-16 -65 -11 -71 45 -56 54 14 55 31 6 75 -35 32 -38 31 -51 -19z"/> <path d="M6018 7581 c-41 -34 -44 -43 -18 -60 45 -30 54 -26 69 31 17 70 6 77 -51 29z"/> <path d="M4602 7363 c-28 -52 -14 -83 39 -83 46 0 47 13 11 78 l-27 49 -23 -44z"/> <path d="M5300 6728 c0 -11 14 -39 31 -64 19 -27 23 -44 9 -44 -12 0 10 -33 49 -73 85 -88 81 -100 -22 -57 -150 63 -254 133 -224 152 19 13 14 16 -17 12 -74 -10 -71 -25 17 -86 60 -41 74 -60 50 -64 -18 -4 -33 -16 -33 -26 0 -12 15 -12 38 1 28 15 58 12 110 -9 39 -17 96 -30 126 -31 31 0 79 -14 106 -30 48 -29 46 -30 -54 -25 -57 3 -98 0 -90 -7 8 -7 75 -16 149 -21 109 -6 143 -17 178 -55 50 -54 91 -7 54 63 -21 42 -57 66 -57 38 0 -11 9 -25 20 -32 11 -7 20 -21 20 -31 0 -28 -166 72 -171 103 -3 15 -11 46 -19 68 -12 35 -8 34 28 -7 23 -26 42 -38 42 -28 0 30 -149 159 -203 175 -26 8 -67 33 -92 56 -25 22 -45 32 -45 22z m193 -130 c37 -23 67 -46 67 -51 0 -5 -9 -4 -20 3 -30 18 -24 -5 14 -64 50 -76 -35 -29 -89 49 -84 121 -80 130 28 63z"/> <path d="M5681 6634 c-13 -41 -20 -86 -14 -99 6 -15 10 -11 11 10 3 63 42 37 45 -30 3 -62 3 -61 16 15 l13 80 16 -87 c9 -48 34 -105 56 -127 33 -33 36 -44 13 -58 -27 -18 -27 -18 47 -25 41 -5 114 -131 155 -270 46 -152 42 -169 -18 -84 -24 33 -53 61 -65 61 -12 0 -10 -14 6 -35 15 -19 2 -13 -28 13 -30 27 -54 39 -54 26 0 -47 -224 86 -248 148 -11 28 -8 30 18 8 17 -14 37 -20 44 -13 7 7 2 13 -10 13 -13 0 -18 11 -13 25 6 15 -18 34 -61 47 -86 27 -88 10 -9 -101 77 -106 305 -232 392 -215 12 3 28 -9 34 -26 7 -16 22 -30 34 -30 13 0 41 -23 63 -50 21 -28 48 -45 60 -38 11 7 26 4 33 -7 8 -13 22 -10 39 7 18 19 19 28 3 28 -13 0 -18 15 -11 35 11 33 10 33 -15 0 -26 -33 -28 -32 -28 16 0 29 -19 78 -42 110 -24 31 -38 69 -32 84 16 42 -25 134 -102 228 -38 46 -69 94 -69 107 0 12 -9 17 -19 11 -11 -7 -14 -27 -7 -44 10 -27 6 -28 -33 -8 -26 14 -40 36 -33 53 6 15 -1 28 -14 28 -14 0 -37 41 -52 91 -15 50 -43 110 -62 134 l-34 42 -25 -73z"/> <path d="M5743 6173 c-22 -26 77 -122 127 -124 11 0 31 -7 45 -16 14 -9 25 -6 25 7 0 12 10 16 23 8 15 -9 18 -5 8 10 -8 14 -20 20 -26 14 -5 -6 -28 -1 -50 11 -31 16 -36 15 -24 -4 10 -17 7 -20 -9 -10 -18 11 -18 22 2 47 19 24 20 28 1 17 -14 -9 -25 -6 -25 6 0 11 -16 21 -35 21 -30 1 -31 3 -5 20 26 17 26 19 -3 20 -17 0 -42 -12 -54 -27z"/> <path d="M6276 5744 c-129 -85 -250 -164 -270 -177 -20 -12 -29 -29 -21 -38 13 -13 355 205 504 321 115 89 -11 27 -213 -106z"/> <path d="M6040 5740 c49 -38 100 -52 100 -27 0 24 -70 66 -110 66 -37 0 -36 -3 10 -39z"/> <path d="M5151 4998 c-104 -78 -115 -92 -40 -49 85 49 163 110 139 109 -11 0 -56 -28 -99 -60z"/> <path d="M6137 4965 c-7 -143 13 -248 73 -395 88 -213 111 -409 51 -445 -47 -29 -46 -30 -89 115 l-24 80 -55 -109 c-82 -162 -82 -398 0 -509 8 -11 227 81 227 96 0 24 174 202 198 202 17 0 18 -10 2 -40 -12 -22 -15 -40 -8 -40 8 0 -2 -18 -22 -40 -20 -22 -31 -46 -25 -52 14 -13 135 147 135 178 0 11 16 32 35 46 32 25 32 27 -10 27 -43 1 -42 5 23 90 38 49 74 117 82 150 7 33 24 68 37 76 13 8 41 42 62 75 20 33 49 67 64 76 46 27 30 52 -28 42 -100 -17 -128 -31 -117 -59 5 -15 -16 -49 -48 -76 -32 -27 -54 -52 -50 -56 5 -5 -7 -9 -26 -10 -19 -1 -52 -8 -74 -17 -27 -11 -15 11 35 63 89 94 138 347 67 347 -43 0 -132 -57 -179 -115 -20 -25 -48 -57 -63 -72 -15 -15 -36 -58 -47 -95 -16 -58 -19 -46 -17 82 3 217 -199 589 -209 385z m163 -256 c0 -36 6 -81 13 -100 9 -24 5 -32 -13 -26 -35 12 -77 128 -78 217 l-1 70 40 -47 c21 -26 39 -77 39 -114z m249 -84 c-62 -107 -58 -107 26 -1 l59 73 2 -72 c3 -62 -12 -87 -116 -192 -106 -106 -191 -149 -118 -60 19 23 20 30 3 20 -54 -33 -3 92 99 242 79 116 113 108 45 -10z m145 -310 c-38 -106 -129 -229 -178 -240 -25 -5 -61 -16 -79 -24 -28 -12 -30 -3 -17 67 8 45 9 78 2 74 -7 -4 -22 3 -35 17 -18 19 -8 33 40 62 35 20 63 35 63 32 0 -3 27 5 60 18 33 13 83 31 110 40 28 8 51 16 53 17 2 1 -7 -27 -19 -63z m-504 -265 c-6 -22 -16 -71 -21 -110 -23 -165 -49 -192 -40 -40 15 225 32 301 55 239 10 -27 13 -67 6 -89z m190 43 c0 -69 -15 -107 -69 -178 -63 -82 -132 -135 -130 -99 4 89 66 260 112 307 73 77 87 72 87 -30z m-271 -114 c-14 -162 -46 -185 -51 -36 -2 63 43 223 58 208 4 -4 1 -81 -7 -172z"/> <path d="M5901 3954 c-1 -20 -15 -63 -32 -96 -17 -34 -28 -76 -23 -94 6 -24 16 -15 33 31 38 99 100 44 102 -91 0 -44 4 -48 19 -21 22 37 -21 204 -69 267 -27 37 -30 37 -30 4z"/> <path d="M6505 3770 c-27 -45 -100 -55 -123 -16 -18 31 -21 32 -21 3 -1 -18 -18 -37 -38 -42 -29 -8 -35 -23 -27 -74 l9 -64 52 49 c57 53 142 102 154 89 21 -21 -104 -163 -168 -189 l-73 -31 84 -41 c79 -39 88 -39 160 -9 42 17 94 38 116 46 45 16 -58 71 -142 76 -39 3 -35 13 44 116 84 109 85 112 37 112 -27 0 -56 -11 -64 -25z"/> <path d="M6125 3684 c-35 -19 -64 -41 -65 -49 0 -25 34 -17 60 15 14 17 41 30 61 30 20 0 42 9 49 20 18 30 -31 22 -105 -16z"/> <path d="M6862 6920 c-115 -91 -119 -102 -58 -159 101 -94 298 61 240 189 -32 69 -64 63 -182 -30z"/> <path d="M1949 6991 c-40 -60 -15 -116 77 -172 155 -94 296 19 169 135 -107 97 -198 111 -246 37z"/> <path d="M3190 6580 c-7 -12 -2 -19 10 -15 50 11 52 -75 4 -165 l-47 -90 14 88 c9 61 7 83 -9 73 -30 -18 -28 15 2 45 14 14 15 24 4 24 -24 0 -88 -126 -88 -172 0 -22 -12 -27 -40 -18 -30 10 -45 1 -59 -37 -10 -27 -29 -52 -42 -57 -30 -10 -40 -155 -11 -158 12 -2 33 -1 47 1 14 1 25 -12 25 -30 0 -17 14 -45 30 -62 17 -17 25 -38 19 -49 -23 -37 -45 -16 -58 54 l-14 72 -48 -45 c-27 -25 -49 -59 -49 -75 0 -25 -5 -25 -33 -1 -29 23 -28 18 3 -30 20 -31 42 -89 49 -128 19 -123 84 -65 222 198 17 33 40 66 50 74 50 37 155 164 127 153 -48 -18 -25 77 45 188 31 49 57 99 57 111 0 12 -36 -37 -80 -109 -44 -71 -80 -142 -80 -156 0 -15 -9 -21 -20 -14 -32 20 -23 95 19 164 33 53 36 75 18 125 -21 63 -45 77 -67 41z m-36 -373 c26 -40 29 -56 11 -62 -14 -5 -25 -21 -25 -37 0 -15 -13 -28 -30 -28 -16 0 -30 13 -30 29 0 17 -12 25 -28 19 -33 -13 -62 24 -33 42 11 6 41 2 66 -10 l45 -21 -45 33 c-25 18 -45 45 -45 60 0 48 77 30 114 -25z m-155 -282 c0 -8 -18 -46 -40 -85 -39 -69 -39 -69 -26 -10 8 32 14 71 14 85 0 14 12 25 26 25 15 0 27 -7 26 -15z"/> <path d="M2548 4938 c9 -26 20 -68 26 -93 6 -25 20 -45 30 -45 12 0 14 15 6 35 -9 19 -20 55 -25 80 -5 25 -19 51 -31 58 -13 9 -15 -3 -6 -35z"/> <path d="M2793 4947 c-7 -8 -13 -35 -13 -62 0 -26 -10 -67 -22 -91 -20 -39 -19 -41 7 -14 17 17 36 64 44 105 13 75 10 87 -16 62z"/> <path d="M2412 4569 c12 -6 18 -32 13 -58 -8 -41 9 -56 136 -123 154 -81 206 -142 226 -264 7 -41 36 -101 64 -134 54 -64 58 -38 11 80 -45 112 -63 195 -52 235 9 33 7 37 -7 17 -15 -23 -26 -13 -50 45 -17 40 -36 73 -43 73 -7 0 -7 -9 0 -20 19 -30 -12 -24 -50 10 -18 16 -68 42 -111 57 -44 15 -79 39 -79 55 0 15 -18 30 -40 32 -22 3 -30 1 -18 -5z"/> <path d="M2278 4518 l-44 -38 63 0 c35 0 70 0 78 0 8 0 15 15 15 33 0 47 -61 50 -112 5z"/> <path d="M2328 4364 c11 -19 2 -23 -36 -16 -58 10 -67 -10 -22 -48 26 -22 29 -20 17 12 -12 31 -9 34 14 16 16 -12 47 -28 69 -35 35 -11 36 -10 8 12 -18 14 -33 33 -33 42 -1 9 -8 22 -17 30 -8 7 -8 1 0 -13z"/> <path d="M2956 4285 c-48 -55 -76 -118 -74 -169 1 -41 3 -40 25 14 13 33 39 89 59 125 39 72 36 83 -10 30z"/> <path d="M2969 4110 c-7 -38 -5 -112 5 -165 18 -89 19 -85 18 70 -2 184 -4 195 -23 95z"/> <path d="M4940 2464 c0 -9 35 -63 77 -120 43 -57 97 -158 121 -223 24 -66 54 -126 66 -134 15 -9 18 -2 11 18 -7 18 -2 36 10 40 29 10 -14 126 -71 189 -22 25 -34 58 -27 76 8 21 -4 37 -37 50 -28 11 -50 24 -50 31 0 6 11 6 25 -1 36 -18 -48 49 -90 72 -19 11 -35 12 -35 2z"/> <path d="M4555 6714 c-70 -20 -103 -80 -64 -118 22 -22 85 8 95 46 11 39 121 56 142 21 13 -21 132 -4 132 19 0 16 -60 26 -135 23 -14 0 -25 7 -25 17 0 22 -47 19 -145 -8z"/> <path d="M4370 5999 c-64 -10 -15 -12 138 -8 131 5 242 13 248 18 15 15 -266 8 -386 -10z"/> <path d="M6286 6741 c-112 -69 -137 -160 -57 -212 131 -86 354 131 227 220 -59 41 -93 39 -170 -8z"/> <path d="M1869 5851 c-48 -35 -24 -65 67 -83 76 -15 95 54 25 91 -48 26 -46 27 -92 -8z"/> <path d="M2031 5787 c-16 -44 9 -68 78 -73 68 -5 119 56 71 86 -49 31 -134 23 -149 -13z"/> <path d="M7620 5685 c1 -54 36 -65 82 -27 l48 41 -65 0 c-36 1 -65 -6 -65 -14z"/> <path d="M7014 5640 c13 -50 29 -50 89 -1 l47 40 -73 0 c-64 1 -72 -4 -63 -39z"/> <path d="M1109 5578 c-15 -49 16 -77 86 -78 52 0 60 48 16 91 -41 42 -86 36 -102 -13z"/> <path d="M7713 4407 c-29 -30 -12 -126 26 -146 106 -57 301 1 301 90 0 54 -280 102 -327 56z"/> <path d="M984 4409 c-29 -20 -44 -52 -44 -91 l0 -60 155 6 155 6 7 59 c12 104 -165 155 -273 80z"/> <path d="M1530 3588 c-22 -17 -57 -43 -77 -58 -35 -25 -35 -29 -2 -78 81 -124 239 -2 168 129 -24 47 -37 47 -89 7z"/> <path d="M7424 3365 c71 -146 78 -150 114 -72 19 43 19 57 -2 70 -33 21 -122 22 -112 2z"/> <path d="M5669 3139 c-18 -30 64 -113 123 -124 48 -9 49 -9 14 31 -103 118 -116 127 -137 93z"/> <path d="M1730 2977 c-172 -151 -175 -377 -6 -377 56 0 184 125 217 212 73 193 -61 297 -211 165z"/> <path d="M6691 2235 c19 -91 36 -102 80 -54 37 42 37 43 -12 80 -70 54 -84 48 -68 -26z"/> <path d="M3526 1422 l-45 -78 52 -13 c65 -16 64 -18 49 84 l-12 84 -44 -77z"/> <path d="M4264 1476 c-36 -36 -32 -236 5 -236 76 0 120 168 60 229 -38 37 -35 37 -65 7z"/> <path d="M4233 1138 c-28 -139 -17 -198 36 -198 56 0 91 50 91 130 0 128 -104 184 -127 68z"/> <path d="M4715 1426 c-102 -233 66 -638 176 -424 40 78 33 316 -12 408 -42 85 -130 94 -164 16z"/> </g> </svg> 